<svg width="122" height="122" viewBox="0 0 122 122" fill="none" xmlns="http://www.w3.org/2000/svg">
<g clip-path="url(#clip0_8_90)">
<path d="M62.0915 79.6401C73.0278 79.6401 81.8933 70.7746 81.8933 59.8383C81.8933 48.9021 73.0278 40.0365 62.0915 40.0365C51.1553 40.0365 42.2897 48.9021 42.2897 59.8383C42.2897 70.7746 51.1553 79.6401 62.0915 79.6401Z" fill="#FFB6B6"/>
<path d="M50.7239 82.5683L49.8293 73.5253L67.6939 70.1849L78.2427 95.8691L59.8969 116.967L46.8254 91.2826L50.7239 82.5683Z" fill="#FFB6B6"/>
<path d="M49.5424 78.0519L53.4481 78.9343C53.4481 78.9343 50.3778 69.1985 51.4199 68.269C52.4621 67.3395 55.0158 68.8041 55.0158 68.8041L57.6993 71.8128L60.9681 68.4848C60.9681 68.4848 64.5168 64.0721 65.9063 62.8328C67.2958 61.5935 65.064 56.9934 65.064 56.9934C65.064 56.9934 85.6782 51.4348 78.0076 41.4362C78.0076 41.4362 73.5104 33.5969 72.0458 36.1506C70.5813 38.7043 68.835 34.6485 68.835 34.6485L63.5023 35.6625C63.5023 35.6625 52.9777 29.4569 42.9886 42.7325C32.9995 56.008 49.5424 78.0519 49.5424 78.0519Z" fill="#2F2E41"/>
<path d="M99.3337 108.458C88.5119 117.232 75.124 122 61 122C48.1028 122 35.818 118.024 25.542 110.653C25.5603 110.46 25.5787 110.27 25.5947 110.08C25.8676 107.099 26.1107 104.2 26.2712 101.797C26.8927 92.4655 48.6624 86.2462 48.6624 86.2462C48.6624 86.2462 48.761 86.3448 48.9582 86.5168C50.1599 87.5717 55.0376 91.3968 63.5913 92.4655C71.2186 93.4195 73.7297 88.8949 74.4888 86.7278C74.7181 86.0673 74.7869 85.6248 74.7869 85.6248L97.178 96.1988C98.6388 98.2857 99.2098 102.78 99.3222 107.832C99.3268 108.041 99.3314 108.248 99.3337 108.458Z" fill="#5086C1"/>
<path d="M104.133 17.8666C92.6122 6.34537 77.2934 0 61 0C44.7066 0 29.3878 6.34537 17.8666 17.8666C6.34538 29.3878 0 44.7066 0 61C0 75.8716 5.28591 89.9314 14.9725 101.033C15.8967 102.095 16.8622 103.129 17.8666 104.133C18.1028 104.37 18.3413 104.606 18.5821 104.835C19.2242 105.457 19.8778 106.064 20.5428 106.654C20.9464 107.014 21.3546 107.367 21.7674 107.713C22.0907 107.986 22.4141 108.254 22.742 108.518C22.7489 108.525 22.7535 108.53 22.7603 108.534C23.6708 109.268 24.5972 109.974 25.542 110.653C35.818 118.024 48.1029 122 61 122C75.124 122 88.5119 117.232 99.3337 108.458C100.217 107.743 101.081 107 101.93 106.232C102.68 105.553 103.413 104.853 104.133 104.133C104.36 103.906 104.587 103.677 104.81 103.445C105.429 102.808 106.03 102.159 106.617 101.501C116.563 90.3282 122 76.0826 122 61C122 44.7066 115.655 29.3878 104.133 17.8666ZM106.468 100.93C105.895 101.581 105.308 102.223 104.707 102.849C103.771 103.824 102.806 104.769 101.808 105.679C101.43 106.028 101.047 106.367 100.659 106.704C100.219 107.087 99.774 107.463 99.3222 107.832C95.7608 110.756 91.86 113.279 87.6887 115.334C86.0398 116.148 84.3497 116.888 82.6206 117.551C75.9037 120.129 68.6135 121.541 61 121.541C53.6525 121.541 46.6077 120.225 40.088 117.817C37.4118 116.831 34.8251 115.659 32.3415 114.318C31.9768 114.12 31.6145 113.921 31.2545 113.717C29.3603 112.644 27.528 111.472 25.7691 110.206C25.7117 110.165 25.6521 110.121 25.5948 110.08C24.3427 109.176 23.125 108.225 21.9485 107.225C21.5174 106.86 21.0909 106.491 20.6712 106.112C19.9878 105.505 19.3182 104.879 18.6646 104.237C17.4263 103.023 16.243 101.76 15.1124 100.446C5.98305 89.842 0.458647 76.0551 0.458647 61C0.458647 27.6174 27.6174 0.458647 61 0.458647C94.3826 0.458647 121.541 27.6174 121.541 61C121.541 76.2867 115.847 90.2662 106.468 100.93Z" fill="#3F3D56"/>
</g>
<defs>
<clipPath id="clip0_8_90">
<rect width="122" height="122" fill="white"/>
</clipPath>
</defs>
</svg>
