<svg width="416" height="674" viewBox="0 0 416 674" fill="none" xmlns="http://www.w3.org/2000/svg">
<g clip-path="url(#clip0_10_4)">
<path d="M6.10352e-05 0L6.89005 37.4444C14.3 74.8889 27.3001 149.778 76.3101 224.667C124.8 299.556 208 374.444 242.71 449.333C276.9 524.222 263.9 599.111 256.49 636.556L249.6 674H6.10352e-05V636.556C6.10352e-05 599.111 6.10352e-05 524.222 6.10352e-05 449.333C6.10352e-05 374.444 6.10352e-05 299.556 6.10352e-05 224.667C6.10352e-05 149.778 6.10352e-05 74.8889 6.10352e-05 37.4444V0Z" fill="#84B6F4"/>
</g>
<defs>
<clipPath id="clip0_10_4">
<rect width="674" height="416" fill="white" transform="matrix(0 1 -1 0 416 0)"/>
</clipPath>
</defs>
</svg>
