<svg width="582" height="348" viewBox="0 0 582 348" fill="none" xmlns="http://www.w3.org/2000/svg">
<g clip-path="url(#clip0_11_25)">
<path d="M445.593 344.065C438.142 337.768 433.616 327.82 434.803 318.136C435.99 308.453 443.341 299.55 452.877 297.494C462.413 295.437 473.283 301.13 476.18 310.446C477.774 292.485 479.61 273.77 489.159 258.474C497.805 244.624 512.779 234.714 529.008 232.941C545.237 231.168 562.324 237.864 572.446 250.675C582.567 263.486 585.046 282.111 577.957 296.819C572.735 307.654 563.114 315.718 553.033 322.278C520.46 343.297 481.393 351.845 443.02 346.349L445.593 344.065Z" fill="#E3E3E3"/>
<path d="M556.397 238.235C543.006 249.144 530.721 261.344 519.72 274.66C502.504 295.428 488.572 318.712 478.41 343.702C477.667 345.525 480.627 346.319 481.362 344.516C497.988 303.902 524.531 268.106 558.562 240.4C560.09 239.156 557.913 237.001 556.397 238.235Z" fill="white"/>
<path d="M187.355 342.354C197.589 333.705 203.806 320.042 202.176 306.741C200.545 293.441 190.448 281.213 177.35 278.389C164.253 275.564 149.323 283.383 145.344 296.179C143.155 271.508 140.632 245.804 127.518 224.795C115.643 205.772 95.0749 192.16 72.7842 189.725C50.4936 187.29 27.0244 196.487 13.1225 214.083C-0.779409 231.68 -4.18323 257.26 5.55329 277.462C12.7258 292.344 25.9402 303.419 39.7856 312.43C83.9571 341.176 138.752 353.165 190.89 345.491" fill="#E3E3E3"/>
<path d="M35.1654 196.997C53.558 211.98 70.4312 228.737 85.5411 247.027C100.653 265.297 113.958 284.99 125.268 305.83C131.59 317.52 137.269 329.547 142.28 341.856C143.302 344.36 139.237 345.45 138.226 342.974C129.351 321.273 118.37 300.494 105.441 280.935C92.575 261.447 77.8493 243.253 61.4706 226.609C52.2068 217.199 42.4327 208.307 32.1925 199.97C30.0936 198.261 33.0838 195.302 35.1654 196.997Z" fill="white"/>
<path d="M417.769 347.238H173.596V96.6781C173.596 43.3695 216.96 0 270.262 0H321.104C374.405 0 417.769 43.3695 417.769 96.6781V347.238Z" fill="#E3E3E3"/>
<path d="M366.928 347.238H173.597V96.6781C173.543 76.2515 180.011 56.3411 192.057 39.8459C192.501 39.2405 192.944 38.643 193.401 38.052C199.228 30.4088 206.162 23.6776 213.974 18.0804C214.416 17.7593 214.859 17.4437 215.308 17.1281C221.846 12.6036 228.917 8.90491 236.362 6.11621C236.804 5.94862 237.254 5.7807 237.705 5.61964C244.438 3.21645 251.418 1.57028 258.515 0.711518C258.955 0.651404 259.407 0.604363 259.858 0.557322C266.775 -0.182295 273.75 -0.182295 280.667 0.557322C281.117 0.604363 281.569 0.651398 282.014 0.712161C289.11 1.57098 296.088 3.21695 302.819 5.61967C303.27 5.78073 303.72 5.94864 304.163 6.11655C311.516 8.87008 318.505 12.5136 324.972 16.9658C325.422 17.2745 325.871 17.5901 326.315 17.9057C330.694 21.032 334.807 24.5149 338.612 28.3188C341.664 31.37 344.508 34.6223 347.125 38.054C347.58 38.643 348.023 39.2406 348.466 39.8449C360.513 56.3403 366.981 76.2511 366.928 96.6781V347.238Z" fill="#CCCCCC"/>
<path d="M351.207 235.172C357.118 235.172 361.91 230.379 361.91 224.467C361.91 218.555 357.118 213.762 351.207 213.762C345.296 213.762 340.503 218.555 340.503 224.467C340.503 230.379 345.296 235.172 351.207 235.172Z" fill="#009100"/>
<path d="M397.766 339.733H389.565L385.663 308.095L397.768 308.096L397.766 339.733Z" fill="#FFB8B8"/>
<path d="M383.706 337.39H399.523V347.35H373.748C373.748 346.042 374.005 344.747 374.506 343.538C375.006 342.33 375.74 341.232 376.664 340.307C377.589 339.382 378.687 338.648 379.895 338.148C381.104 337.647 382.399 337.39 383.706 337.39Z" fill="#2F2E41"/>
<path d="M438.573 339.733H430.372L426.469 308.095L438.574 308.096L438.573 339.733Z" fill="#FFB8B8"/>
<path d="M424.513 337.39H440.33V347.35H414.554C414.554 346.042 414.812 344.747 415.313 343.538C415.813 342.33 416.547 341.232 417.471 340.307C418.396 339.382 419.494 338.648 420.702 338.148C421.91 337.647 423.205 337.39 424.513 337.39Z" fill="#2F2E41"/>
<path d="M356.624 226.588C356.034 225.718 355.642 224.73 355.475 223.693C355.308 222.655 355.371 221.594 355.658 220.583C355.946 219.573 356.452 218.637 357.14 217.844C357.828 217.05 358.682 216.416 359.641 215.988L387.521 139.136L401.24 146.624L369.407 220.066C370.02 221.726 370.002 223.552 369.358 225.2C368.714 226.848 367.488 228.202 365.912 229.005C364.336 229.809 362.52 230.007 360.809 229.562C359.097 229.116 357.608 228.058 356.624 226.588Z" fill="#FFB8B8"/>
<path d="M434.384 241.029C433.472 240.506 432.686 239.79 432.082 238.931C431.477 238.071 431.068 237.09 430.883 236.056C430.699 235.021 430.743 233.959 431.014 232.943C431.284 231.928 431.774 230.984 432.448 230.179L423.812 148.883L439.424 149.596L443.013 229.561C444.291 230.784 445.076 232.434 445.22 234.197C445.363 235.96 444.855 237.715 443.791 239.128C442.727 240.542 441.182 241.516 439.448 241.866C437.715 242.216 435.913 241.918 434.384 241.029Z" fill="#FFB8B8"/>
<path d="M409.478 124.901C418.552 124.901 425.908 117.544 425.908 108.468C425.908 99.393 418.552 92.0359 409.478 92.0359C400.404 92.0359 393.047 99.393 393.047 108.468C393.047 117.544 400.404 124.901 409.478 124.901Z" fill="#FFB8B8"/>
<path d="M434.279 222.539H384.744L384.804 222.154C384.893 221.578 393.632 164.322 387.186 145.59C386.539 143.749 386.596 141.734 387.346 139.933C388.095 138.132 389.485 136.671 391.246 135.833C400.459 131.494 418.144 126.151 433.07 139.118C435.267 141.057 436.982 143.481 438.08 146.198C439.179 148.914 439.63 151.849 439.398 154.771L434.279 222.539Z" fill="#009100"/>
<path d="M394.258 172.783L371.957 168.258L382.41 143.483C383.036 141.084 384.587 139.03 386.725 137.773C388.862 136.516 391.411 136.159 393.812 136.778C396.212 137.398 398.269 138.945 399.531 141.08C400.793 143.214 401.157 145.762 400.543 148.165L394.258 172.783Z" fill="#009100"/>
<path d="M422.82 181.185L421.479 150.448C420.463 144.67 423.77 139.207 428.856 138.315C433.944 137.425 438.912 141.432 439.933 147.253L444.973 175.974L422.82 181.185Z" fill="#009100"/>
<path d="M432.631 218.86C440.601 249.219 441.471 287.818 439.32 329.922L428.617 328.584L409.217 248.298L398.513 329.922L386.472 329.253C382.875 285.076 379.372 247.15 385.134 222.205L432.631 218.86Z" fill="#2F2E41"/>
<path d="M420.304 121.168C417.239 124.434 411.546 122.681 411.147 118.219C411.115 117.873 411.118 117.525 411.154 117.179C411.36 115.203 412.501 113.408 412.228 111.322C412.166 110.803 411.972 110.308 411.666 109.884C409.223 106.613 403.489 111.347 401.184 108.386C399.771 106.57 401.432 103.711 400.348 101.682C398.916 99.0032 394.676 100.325 392.016 98.8576C389.058 97.2255 389.235 92.6855 391.182 89.924C393.558 86.5563 397.722 84.7592 401.834 84.5002C405.947 84.2412 410.031 85.3531 413.871 86.8496C418.233 88.5499 422.559 90.8997 425.244 94.7361C428.508 99.4015 428.822 105.674 427.19 111.129C426.196 114.448 422.807 118.501 420.304 121.168Z" fill="#2F2E41"/>
<path d="M561.919 347.669H68.0254C67.8146 347.668 67.6126 347.584 67.4637 347.435C67.3148 347.285 67.2312 347.083 67.2312 346.872C67.2312 346.661 67.3148 346.459 67.4637 346.31C67.6126 346.16 67.8146 346.076 68.0254 346.076H561.919C562.13 346.076 562.332 346.16 562.48 346.31C562.629 346.459 562.713 346.661 562.713 346.872C562.713 347.083 562.629 347.285 562.48 347.435C562.332 347.584 562.13 347.668 561.919 347.669Z" fill="#3F3D56"/>
<path d="M313.745 274.646H226.779C225.634 274.652 224.533 274.204 223.718 273.399C222.903 272.594 222.44 271.499 222.431 270.354V76.2153C222.44 75.0699 222.903 73.9747 223.718 73.17C224.533 72.3654 225.634 71.917 226.779 71.9231H313.745C314.89 71.917 315.991 72.3654 316.806 73.17C317.622 73.9747 318.084 75.0699 318.093 76.2153V270.354C318.084 271.499 317.622 272.594 316.806 273.399C315.991 274.204 314.89 274.652 313.745 274.646Z" fill="white"/>
<path d="M318.093 134.74H222.431V136.078H318.093V134.74Z" fill="#CCCCCC"/>
<path d="M318.428 211.086H222.766V212.424H318.428V211.086Z" fill="#CCCCCC"/>
<path d="M253.872 71.9231H252.534V275.315H253.872V71.9231Z" fill="#CCCCCC"/>
<path d="M287.321 71.9231H285.983V275.315H287.321V71.9231Z" fill="#CCCCCC"/>
</g>
<defs>
<clipPath id="clip0_11_25">
<rect width="582" height="348" fill="white"/>
</clipPath>
</defs>
</svg>
