<svg width="45" height="44" viewBox="0 0 45 44" fill="none" xmlns="http://www.w3.org/2000/svg">
<g clip-path="url(#clip0_45_993)">
<path d="M41.25 9.1665H16.875V7.33317H41.25V9.1665ZM41.25 36.6665H16.875V38.4998H41.25V36.6665ZM41.25 21.9998H16.875V23.8332H41.25V21.9998ZM11.25 25.6665H3.75V18.3332H11.25V25.6665ZM9.375 20.1665H5.625V23.8332H9.375V20.1665ZM4.57125 36.1165L3.1875 37.4695L6.66937 40.6412L13.125 34.3528L11.7413 32.9998L6.66937 37.9425L4.57125 36.1165ZM11.7413 3.6665L6.66937 8.60917L4.56937 6.78317L3.1875 8.13617L6.66937 11.3078L13.125 5.0195L11.7413 3.6665Z" fill="#007AFF"/>
</g>
<defs>
<clipPath id="clip0_45_993">
<rect width="45" height="44" fill="white"/>
</clipPath>
</defs>
</svg>
