<svg width="29" height="29" viewBox="0 0 29 29" fill="none" xmlns="http://www.w3.org/2000/svg">
<path d="M6.28722 0.0396652C5.99835 0.0849762 5.57355 0.24357 5.27902 0.407829C4.66163 0.753336 4.49171 0.991226 2.4923 4.19142C0.464563 7.44259 0.170032 7.96369 0.0680791 8.47345C-0.0395381 8.98322 -0.0225459 11.7246 0.0850713 12.1494C0.221009 12.6819 0.48722 13.1633 0.84972 13.5485L1.1839 13.8996L0.844056 14.2565C0.458899 14.6699 0.204017 15.1344 0.0850713 15.6442C-0.033874 16.1596 -0.033874 18.9236 0.0850713 19.3994C0.221009 19.9319 0.48722 20.4133 0.84972 20.7985L1.1839 21.1496L0.844056 21.5065C0.662806 21.7047 0.430579 22.0219 0.339954 22.2031C0.0397588 22.7979 0.000110363 23.0924 0.000110363 24.7803C0.000110363 26.4908 0.0454229 26.791 0.356946 27.3801C0.589173 27.8219 1.17824 28.411 1.62003 28.6432C2.29406 29 2.26007 29 6.87062 29C11.5208 29 11.3112 29.017 11.4755 28.6205C11.5831 28.3713 11.5378 28.1504 11.3509 27.9748L11.2036 27.8389L6.91593 27.8106L2.6339 27.7822L2.25441 27.5953C1.82394 27.3858 1.57472 27.1252 1.36515 26.6778C1.22355 26.3776 1.21788 26.3266 1.20089 25.0069C1.17824 23.5625 1.21788 23.1377 1.42179 22.7469C1.59171 22.4127 1.95988 22.0615 2.28839 21.9086L2.57726 21.7783L7.96378 21.75C12.6366 21.7274 13.3616 21.7104 13.4579 21.6367C13.6562 21.4838 13.7015 21.3819 13.7071 21.144C13.7071 20.957 13.6732 20.8721 13.5372 20.7361L13.3616 20.5662L7.99777 20.5492L2.6339 20.5322L2.25441 20.3453C1.82394 20.1358 1.57472 19.8752 1.36515 19.4278C1.22355 19.1276 1.21788 19.0766 1.20089 17.7569C1.17824 16.3125 1.21788 15.8877 1.42179 15.4969C1.59171 15.1627 1.95988 14.8115 2.28839 14.6586L2.57726 14.5283H14.5001H26.423L26.7118 14.6586C27.0403 14.8115 27.4085 15.1627 27.5784 15.4969C27.7823 15.8877 27.822 16.3069 27.7993 17.7285C27.7767 18.9293 27.7653 19.0936 27.6521 19.4221C27.4935 19.8582 27.5501 20.1074 27.8333 20.283C28.3148 20.5776 28.6886 20.2774 28.9152 19.3994C29.0341 18.9293 29.0398 16.1652 28.9152 15.6442C28.7962 15.1344 28.5413 14.6699 28.1562 14.2565L27.8163 13.8996L28.1505 13.5485C28.3318 13.3559 28.564 13.0387 28.6546 12.8404C28.9661 12.2004 29.0001 11.9625 29.0001 10.2973C29.0001 8.67169 28.9661 8.39416 28.7169 7.83908C28.581 7.53322 25.2562 2.13537 24.6841 1.29142C24.4349 0.917595 23.9704 0.521111 23.5456 0.317204C22.8603 -0.0169754 23.3021 1.52588e-05 14.5001 0.00568008C10.0595 0.0113449 6.36652 0.0283356 6.28722 0.0396652ZM22.9396 1.36506C23.1095 1.45002 23.3361 1.59162 23.438 1.67658C23.54 1.7672 24.2083 2.78107 24.9277 3.93654L26.2304 6.03224L20.3624 6.04923C17.1396 6.0549 11.8607 6.0549 8.63781 6.04923L2.76984 6.03224L4.07257 3.93654C4.79191 2.78107 5.46027 1.7672 5.56222 1.68224C5.81144 1.46701 6.12863 1.30841 6.41749 1.24611C6.54777 1.22345 10.2521 1.20646 14.6417 1.20646L22.628 1.21779L22.9396 1.36506ZM26.7118 7.40861C27.0403 7.56154 27.4085 7.91271 27.5784 8.24689C27.7823 8.63771 27.822 9.06252 27.7993 10.5069L27.7823 11.8662L27.5954 12.2457C27.3859 12.6762 27.131 12.9254 26.6778 13.135L26.3663 13.2822H14.5001H2.6339L2.32238 13.135C1.86925 12.9254 1.61437 12.6762 1.4048 12.2457L1.21788 11.8662L1.20089 10.5069C1.17824 9.06252 1.21788 8.63771 1.42179 8.24689C1.56339 7.96369 1.89191 7.61251 2.12413 7.48791C2.58292 7.25002 2.1921 7.25568 14.5851 7.26701L26.423 7.27834L26.7118 7.40861Z" fill="#F14668"/>
<path d="M3.85156 8.51875C3.44941 8.60938 3.24551 8.71699 2.9623 9.00586C2.57715 9.38535 2.46387 9.67988 2.46387 10.2803C2.46387 10.7221 2.48652 10.8297 2.6168 11.0732C2.79805 11.4131 3.10957 11.7189 3.45508 11.9002C3.66465 12.0135 3.79492 12.0361 4.21973 12.0361C4.82012 12.0361 5.11465 11.9229 5.49414 11.5377C5.78301 11.2488 5.91895 10.9939 5.99258 10.5918C6.2248 9.33437 5.10332 8.24687 3.85156 8.51875ZM4.63887 9.86113C5.10332 10.3199 4.55391 11.0959 3.97051 10.7957C3.59102 10.5975 3.52871 10.1047 3.85723 9.83281C4.10645 9.61758 4.4123 9.62891 4.63887 9.86113Z" fill="#F14668"/>
<path d="M14.9815 8.4791C14.4831 8.60938 14.3528 9.27207 14.772 9.55527C14.9192 9.65156 15.1741 9.65723 19.9376 9.65723C24.7011 9.65723 24.9559 9.65156 25.1032 9.55527C25.4317 9.33438 25.4317 8.79063 25.1032 8.56973C24.9559 8.47344 24.7011 8.46777 20.0225 8.46211C17.3151 8.45645 15.0438 8.46211 14.9815 8.4791Z" fill="#F14668"/>
<path d="M14.8286 10.9656C14.4605 11.1639 14.4152 11.651 14.7324 11.9172L14.9079 12.0645H19.9376H24.9673L25.1429 11.9172C25.4658 11.6453 25.4091 11.1525 25.0353 10.96C24.7917 10.8354 15.0609 10.8354 14.8286 10.9656Z" fill="#F14668"/>
<path d="M3.85156 15.7687C3.44941 15.8594 3.24551 15.967 2.9623 16.2559C2.57715 16.6354 2.46387 16.9299 2.46387 17.5303C2.46387 17.9721 2.48652 18.0797 2.6168 18.3232C2.79805 18.6631 3.10957 18.9689 3.45508 19.1502C3.66465 19.2635 3.79492 19.2861 4.21973 19.2861C4.82012 19.2861 5.11465 19.1729 5.49414 18.7877C5.78301 18.4988 5.91895 18.2439 5.99258 17.8418C6.2248 16.5844 5.10332 15.4969 3.85156 15.7687ZM4.63887 17.1111C5.10332 17.5699 4.55391 18.3459 3.97051 18.0457C3.59102 17.8475 3.52871 17.3547 3.85723 17.0828C4.10645 16.8676 4.4123 16.8789 4.63887 17.1111Z" fill="#F14668"/>
<path d="M14.9815 15.7291C14.4831 15.8594 14.3528 16.5221 14.772 16.8053C14.9192 16.9016 15.1741 16.9072 19.9376 16.9072C24.7011 16.9072 24.9559 16.9016 25.1032 16.8053C25.4317 16.5844 25.4317 16.0406 25.1032 15.8197C24.9559 15.7234 24.7011 15.7178 20.0225 15.7121C17.3151 15.7064 15.0438 15.7121 14.9815 15.7291Z" fill="#F14668"/>
<path d="M19.2863 18.159C19.224 18.1703 19.0314 18.21 18.8615 18.2439C17.2529 18.5498 15.8199 19.6543 15.0779 21.1553C14.8117 21.699 14.7437 21.8916 14.6191 22.526L14.5172 23.0131L14.2113 23.1094C13.7469 23.2566 13.4636 23.4152 13.0955 23.7607C12.5178 24.2932 12.2176 24.8709 12.1213 25.6242C11.94 27.0402 12.8179 28.3883 14.217 28.8641C14.5115 28.966 14.806 28.9717 19.9943 28.9717C25.109 28.9717 25.4828 28.966 25.8283 28.8697C27.3066 28.4563 28.4621 27.2951 28.8642 25.8281C29.0228 25.2674 29.0058 24.2365 28.8416 23.6475C28.4338 22.2371 27.3859 21.1723 25.9699 20.7191C25.7717 20.6568 25.3752 20.5945 25.024 20.5775C24.4293 20.5436 24.4179 20.5436 24.2933 20.368C23.4211 19.1729 22.107 18.3912 20.6513 18.1873C20.2322 18.125 19.5242 18.1137 19.2863 18.159ZM20.8892 19.4617C21.6482 19.6203 22.5545 20.1697 23.0982 20.7928C23.1888 20.9004 23.3644 21.1439 23.4947 21.3309C23.625 21.5234 23.7722 21.699 23.8289 21.7273C23.8855 21.75 24.265 21.7783 24.6672 21.7783C25.2562 21.7896 25.4658 21.8123 25.7263 21.9086C27.1027 22.4127 27.975 23.8117 27.7541 25.1711C27.6351 25.9357 27.3519 26.4625 26.7855 26.9893C26.4174 27.3234 26.1058 27.5047 25.6017 27.6746C25.3129 27.7709 24.9674 27.7822 20.2492 27.7992C15.0326 27.8162 14.7041 27.8049 14.2793 27.584C13.9904 27.4367 13.6279 27.0629 13.4693 26.7457C13.3617 26.5248 13.339 26.3889 13.339 25.9697C13.339 25.5279 13.3617 25.4203 13.492 25.1768C13.7865 24.6217 14.2623 24.2932 14.925 24.1855C15.5877 24.0779 15.6556 23.9986 15.7406 23.1943C15.8482 22.1465 16.2504 21.2969 16.9584 20.5832C18.0119 19.5354 19.3656 19.1445 20.8892 19.4617Z" fill="#F14668"/>
<path d="M3.85156 23.0187C3.44941 23.1094 3.24551 23.217 2.9623 23.5059C2.57715 23.8854 2.46387 24.1799 2.46387 24.7803C2.46387 25.2221 2.48652 25.3297 2.6168 25.5732C2.79805 25.9131 3.10957 26.2189 3.45508 26.4002C3.66465 26.5135 3.79492 26.5361 4.21973 26.5361C4.82012 26.5361 5.11465 26.4229 5.49414 26.0377C5.78301 25.7488 5.91895 25.4939 5.99258 25.0918C6.2248 23.8344 5.10332 22.7469 3.85156 23.0187ZM4.63887 24.3611C5.10332 24.8199 4.55391 25.5959 3.97051 25.2957C3.59102 25.0975 3.52871 24.6047 3.85723 24.3328C4.10645 24.1176 4.4123 24.1289 4.63887 24.3611Z" fill="#F14668"/>
</svg>
