<svg width="42" height="42" viewBox="0 0 42 42" fill="none" xmlns="http://www.w3.org/2000/svg">
<g clip-path="url(#clip0_46_2)">
<path opacity="0.948" fill-rule="evenodd" clip-rule="evenodd" d="M41.959 9.39235C41.959 10.2127 41.959 11.033 41.959 11.8533C41.2962 15.7593 39.1086 18.4253 35.3965 19.8513C34.2223 20.228 33.0192 20.3785 31.7871 20.3025C31.8008 25.6893 31.7871 31.076 31.7461 36.4627C31.2302 38.9746 29.7126 40.4649 27.1934 40.9334C19.6738 40.9881 12.1543 40.9881 4.63477 40.9334C2.1053 40.4955 0.546702 39.0325 -0.0410156 36.5447C-0.0410156 35.1229 -0.0410156 33.7009 -0.0410156 32.2791C0.0700616 32.0989 0.234124 31.9759 0.451172 31.9099C2.11892 31.8689 3.78688 31.8552 5.45508 31.8689C5.46285 23.8291 5.5312 15.7901 5.66016 7.75173C5.69832 7.63436 5.76668 7.53865 5.86523 7.46462C11.6283 7.36943 17.3978 7.30107 23.1738 7.25954C25.1456 2.82742 28.5636 0.73562 33.4277 0.98415C37.2057 1.55295 39.8444 3.59006 41.3438 7.09548C41.6282 7.85144 41.8333 8.61708 41.959 9.39235ZM31.2129 2.4197C35.3953 2.17846 38.3348 3.9558 40.0312 7.75173C41.1591 11.2931 40.3798 14.3419 37.6934 16.8982C34.2527 19.4827 30.7528 19.5647 27.1934 17.1443C24.1853 14.4776 23.3513 11.2373 24.6914 7.4236C26.0025 4.62125 28.1763 2.95329 31.2129 2.4197ZM7.01367 8.7361C12.2637 8.7361 17.5137 8.7361 22.7637 8.7361C22.4001 10.7079 22.6188 12.6083 23.4199 14.4373C21.1778 14.4646 18.9355 14.492 16.6934 14.5193C16.1465 14.9568 16.1465 15.3943 16.6934 15.8318C19.1816 15.8591 21.6699 15.8865 24.1582 15.9138C25.6466 18.1797 27.7247 19.5879 30.3926 20.1384C30.4063 25.3885 30.3926 30.6385 30.3516 35.8885C29.9679 38.104 28.6554 39.3344 26.4141 39.5799C24.4182 39.4157 23.1331 38.3766 22.5586 36.4627C22.4565 35.0713 22.4018 33.6767 22.3945 32.2791C22.3564 32.1617 22.288 32.066 22.1895 31.992C17.081 31.8698 11.9677 31.8288 6.84961 31.8689C6.9309 24.1583 6.98558 16.4474 7.01367 8.7361ZM12.5918 14.4783C13.3095 14.5745 13.542 14.9574 13.2891 15.6267C12.8316 16.0567 12.394 16.0293 11.9766 15.5447C11.8226 14.9754 12.0277 14.62 12.5918 14.4783ZM12.3457 20.4666C13.3313 20.4037 13.6048 20.8003 13.166 21.656C12.5504 21.9793 12.1128 21.8152 11.8535 21.1638C11.9077 20.8504 12.0718 20.618 12.3457 20.4666ZM12.3457 26.3728C12.7016 26.3192 13.0161 26.4012 13.2891 26.6189C13.5398 27.3521 13.28 27.7213 12.5098 27.7263C11.7296 27.3483 11.6749 26.8971 12.3457 26.3728ZM1.35352 33.3455C7.91602 33.3455 14.4785 33.3455 21.041 33.3455C21.0273 34.3849 21.041 35.424 21.082 36.4627C21.271 37.7028 21.8316 38.7282 22.7637 39.5388C16.9121 39.5936 11.0605 39.5936 5.20898 39.5388C3.10274 39.292 1.83126 38.13 1.39453 36.0525C1.35353 35.1506 1.33986 34.2482 1.35352 33.3455Z" fill="#FAFF00"/>
<path opacity="0.928" fill-rule="evenodd" clip-rule="evenodd" d="M32.0333 4.22474C32.3458 4.21481 32.6056 4.3242 32.8126 4.55287C32.9184 4.8999 32.9594 5.25536 32.9356 5.61927C34.0494 5.9263 34.774 6.63724 35.1095 7.75208C35.1816 8.14474 35.1542 8.52753 35.0274 8.90052C34.7161 9.17147 34.3743 9.21249 34.002 9.02357C33.9035 8.94949 33.8351 8.85385 33.797 8.73646C33.6682 7.29256 32.9162 6.75936 31.5411 7.13685C30.7794 7.67778 30.6016 8.37503 31.0079 9.22865C31.1583 9.37901 31.3087 9.52946 31.4591 9.67982C32.1394 9.85135 32.8231 10.0154 33.5099 10.172C34.7992 10.9054 35.3324 12.0128 35.1095 13.4943C34.8154 14.636 34.1044 15.3743 32.9767 15.7091C32.9493 15.9825 32.9219 16.256 32.8946 16.5294C32.6823 17.0471 32.3132 17.1975 31.7872 16.9806C31.7189 16.9123 31.6505 16.8439 31.5821 16.7755C31.469 16.4034 31.428 16.0206 31.4591 15.6271C29.9134 15.1054 29.2435 14.039 29.4493 12.4279C29.8564 12.0003 30.2666 12.0003 30.6798 12.4279C30.7342 12.8922 30.8709 13.3297 31.0899 13.7404C31.8214 14.4662 32.5734 14.4935 33.3458 13.8224C33.9528 12.9667 33.8435 12.2147 33.0177 11.5665C32.4844 11.4035 31.9375 11.2942 31.377 11.2384C29.7334 10.5629 29.0908 9.34603 29.4493 7.58802C29.7726 6.62217 30.4151 5.96592 31.377 5.61927C31.4347 5.26076 31.503 4.9053 31.5821 4.55287C31.7052 4.39137 31.8555 4.282 32.0333 4.22474Z" fill="#FAFF00"/>
<path opacity="0.932" fill-rule="evenodd" clip-rule="evenodd" d="M12.0996 13.0838C13.7249 12.906 14.6546 13.617 14.8886 15.2166C14.5945 16.9506 13.5827 17.6205 11.8535 17.2264C10.5735 16.5863 10.1769 15.5882 10.664 14.2322C11.0139 13.6761 11.4924 13.2933 12.0996 13.0838ZM12.5918 14.4783C12.0276 14.62 11.8226 14.9754 11.9765 15.5447C12.394 16.0294 12.8315 16.0567 13.289 15.6268C13.5419 14.9574 13.3095 14.5745 12.5918 14.4783Z" fill="#FAFF00"/>
<path opacity="0.933" fill-rule="evenodd" clip-rule="evenodd" d="M12.1816 18.9901C13.9738 18.9095 14.8624 19.7571 14.8477 21.5331C14.42 22.8754 13.504 23.436 12.0996 23.2147C10.8322 22.8199 10.299 21.9586 10.5 20.6307C10.7833 19.7868 11.3438 19.2399 12.1816 18.9901ZM12.3457 20.4667C12.0718 20.6181 11.9077 20.8505 11.8535 21.1639C12.1128 21.8154 12.5504 21.9794 13.166 21.6561C13.6048 20.8004 13.3313 20.4038 12.3457 20.4667Z" fill="#FAFF00"/>
<path opacity="0.915" fill-rule="evenodd" clip-rule="evenodd" d="M16.8574 20.3845C20.0021 20.3708 23.1466 20.3845 26.291 20.4255C26.6465 20.5208 26.8105 20.7533 26.7832 21.1228C26.8094 21.4956 26.6453 21.728 26.291 21.8201C23.1191 21.8748 19.9473 21.8748 16.7754 21.8201C16.3249 21.5623 16.2018 21.1932 16.4063 20.7127C16.5293 20.5511 16.6797 20.4418 16.8574 20.3845Z" fill="#FAFF00"/>
<path opacity="0.932" fill-rule="evenodd" clip-rule="evenodd" d="M12.1816 24.8964C13.9738 24.8157 14.8625 25.6634 14.8476 27.4393C14.3458 28.9481 13.3204 29.4813 11.7715 29.0389C10.4335 28.2688 10.1191 27.1886 10.8281 25.7987C11.1844 25.3413 11.6356 25.0405 12.1816 24.8964ZM12.3457 26.3729C11.6748 26.8972 11.7295 27.3484 12.5097 27.7264C13.2799 27.7214 13.5397 27.3522 13.289 26.619C13.0161 26.4013 12.7016 26.3193 12.3457 26.3729Z" fill="#FAFF00"/>
<path opacity="0.962" fill-rule="evenodd" clip-rule="evenodd" d="M16.7754 26.3728C19.9747 26.3591 23.1739 26.3728 26.3731 26.4138C26.6797 26.5286 26.8164 26.7474 26.7832 27.0701C26.8211 27.3609 26.7117 27.5797 26.4551 27.7263C23.2012 27.781 19.9473 27.781 16.6934 27.7263C16.1462 27.2466 16.1735 26.7954 16.7754 26.3728Z" fill="#FAFF00"/>
</g>
<defs>
<clipPath id="clip0_46_2">
<rect width="42" height="42" fill="white"/>
</clipPath>
</defs>
</svg>
