<svg width="42" height="31" viewBox="0 0 42 31" fill="none" xmlns="http://www.w3.org/2000/svg">
<path d="M31.5 21C29.575 21 28 22.575 28 24.5C28 26.425 29.575 28 31.5 28C32.3036 28 32.984 27.6556 33.6 27.16C34.216 27.6556 34.8964 28 35.7 28C37.625 28 39.2 26.425 39.2 24.5C39.2 22.575 37.625 21 35.7 21C34.8964 21 34.216 21.336 33.6 21.833C32.984 21.336 32.3036 21.0014 31.5 21ZM31.5 22.4C32.102 22.4 32.676 22.6604 33.075 23.114C33.355 23.429 33.845 23.429 34.125 23.114C34.524 22.6604 35.0966 22.4 35.7 22.4C36.8676 22.4 37.8 23.3324 37.8 24.5C37.8 25.6676 36.8676 26.6 35.7 26.6C35.098 26.6 34.524 26.3396 34.125 25.886C33.845 25.571 33.355 25.571 33.075 25.886C32.676 26.3396 32.1034 26.6 31.5 26.6C30.3324 26.6 29.4 25.6676 29.4 24.5C29.4 23.3324 30.3324 22.4 31.5 22.4ZM21.7 23.8H24.5C24.8878 23.8 25.2 24.1122 25.2 24.5C25.2 24.8878 24.8878 25.2 24.5 25.2H21.7C21.3122 25.2 21 24.8878 21 24.5C21 24.1122 21.3122 23.8 21.7 23.8ZM16.1 23.8H18.9C19.2878 23.8 19.6 24.1122 19.6 24.5C19.6 24.8878 19.2878 25.2 18.9 25.2H16.1C15.7122 25.2 15.4 24.8878 15.4 24.5C15.4 24.1122 15.7122 23.8 16.1 23.8ZM10.5 23.8H13.3C13.6878 23.8 14 24.1122 14 24.5C14 24.8878 13.6878 25.2 13.3 25.2H10.5C10.1122 25.2 9.8 24.8878 9.8 24.5C9.8 24.1122 10.1122 23.8 10.5 23.8ZM20.3 16.8H37.1C37.4878 16.8 37.8 17.1122 37.8 17.5C37.8 17.8878 37.4878 18.2 37.1 18.2H20.3C19.9122 18.2 19.6 17.8878 19.6 17.5C19.6 17.1122 19.9122 16.8 20.3 16.8ZM27.3 12.6H37.1C37.4878 12.6 37.8 12.9122 37.8 13.3C37.8 13.6878 37.4878 14 37.1 14H27.3C26.9122 14 26.6 13.6878 26.6 13.3C26.6 12.9122 26.9122 12.6 27.3 12.6ZM20.3 12.6H24.5C24.8878 12.6 25.2 12.9122 25.2 13.3C25.2 13.6878 24.8878 14 24.5 14H20.3C19.9122 14 19.6 13.6878 19.6 13.3C19.6 12.9122 19.9122 12.6 20.3 12.6ZM10.5 11.2C10.1136 11.2 9.8 11.5136 9.8 11.9V18.9C9.8 19.2864 10.1136 19.6 10.5 19.6H16.1C16.4864 19.6 16.8 19.2864 16.8 18.9V11.9C16.8 11.5136 16.4864 11.2 16.1 11.2H10.5ZM11.2 12.6H15.4V18.2H11.2V12.6ZM9.1 8.4C7.9492 8.4 7 9.3492 7 10.5V28.7C7 29.8508 7.9492 30.8 9.1 30.8H39.9C41.0508 30.8 42 29.8508 42 28.7V10.5C42 9.3492 41.0508 8.4 39.9 8.4H9.1ZM9.1 9.8H39.9C40.3004 9.8 40.6 10.0996 40.6 10.5V28.7C40.6 29.1004 40.3004 29.4 39.9 29.4H9.1C8.6996 29.4 8.4 29.1004 8.4 28.7V10.5C8.4 10.0996 8.6996 9.8 9.1 9.8ZM2.1 0C0.9492 0 0 0.9492 0 2.1V20.3C0 21.4508 0.9492 22.4 2.1 22.4H4.9C5.8408 22.4 5.8142 21 4.9 21H2.1C1.6996 21 1.4 20.7004 1.4 20.3V11.2H3.5C3.8878 11.2 4.2 10.8878 4.2 10.5C4.2 10.1122 3.8878 9.8 3.5 9.8H1.4V5.6H35V6.3C35 7.2408 36.4 7.2198 36.4 6.3V2.1C36.4 0.9492 35.4508 0 34.3 0H2.1ZM2.1 1.4H34.3C34.7004 1.4 35 1.6996 35 2.1V4.2H1.4V2.1C1.4 1.6996 1.6996 1.4 2.1 1.4Z" fill="#007AFF"/>
</svg>
