<svg width="33" height="28" viewBox="0 0 33 28" fill="none" xmlns="http://www.w3.org/2000/svg">
<path d="M5.27891 0.274412C4.54766 0.520506 4.04141 0.992186 3.73906 1.70312L3.57031 2.09277V7.81445V13.5293L3.78828 13.707C4.02734 13.9053 4.175 13.9258 4.44922 13.8027C4.83594 13.6318 4.83594 13.6387 4.83594 9.85156V6.36523H18.3359H31.8359V13.9531C31.8359 20.6523 31.8219 21.5752 31.7305 21.8008C31.5828 22.1357 31.3648 22.3545 31.0273 22.5049C30.7602 22.6279 30.4016 22.6348 23.7641 22.6348H16.775L16.5711 22.833C16.2969 23.1064 16.2969 23.3936 16.5711 23.667L16.782 23.8652L23.9398 23.8516L31.0977 23.8311L31.5617 23.6123C32.1172 23.3457 32.5461 22.915 32.8062 22.375L32.9961 21.9854V12.0049V2.02441L32.7992 1.60742C32.5602 1.1084 32.0891 0.636717 31.5547 0.370115L31.168 0.178709L18.4062 0.165037C6.27031 0.151365 5.62344 0.151365 5.27891 0.274412ZM30.9008 1.45019C31.182 1.55273 31.4773 1.83984 31.632 2.16113C31.7445 2.40039 31.7656 2.61914 31.7656 3.78125V5.13476H18.2586H4.75859L4.77969 3.64453L4.80078 2.14746L5.00469 1.89453C5.11719 1.75097 5.33516 1.57324 5.49687 1.50488C5.77813 1.38183 6.22812 1.375 18.2445 1.375C26.8789 1.375 30.7602 1.39551 30.9008 1.45019Z" fill="#007AFF"/>
<path d="M7.11416 2.6738C6.78369 2.80368 6.63604 3.25486 6.81182 3.57614C6.93135 3.78806 7.31104 3.91794 7.57119 3.82907C8.04932 3.66501 8.12666 2.99509 7.69775 2.74216C7.45166 2.59177 7.34619 2.58493 7.11416 2.6738Z" fill="#007AFF"/>
<path d="M9.7227 2.66699C9.0688 2.93359 9.23755 3.84961 9.93364 3.84961C10.679 3.84961 10.7704 2.79688 10.0391 2.64648C9.94067 2.62598 9.80005 2.63965 9.7227 2.66699Z" fill="#007AFF"/>
<path d="M12.2046 2.71484C11.7195 2.96777 11.7476 3.60352 12.2609 3.80859C12.4648 3.89063 12.5351 3.89063 12.739 3.80859C13.2593 3.59668 13.2804 2.96094 12.7812 2.70801C12.5281 2.58496 12.4507 2.58496 12.2046 2.71484Z" fill="#007AFF"/>
<path d="M7.64146 8.9834C7.31099 9.22949 7.28286 9.64648 7.57115 9.92676L7.77505 10.125H18.2235C24.6993 10.125 28.7282 10.0977 28.8407 10.0566C29.2485 9.90625 29.3258 9.30469 28.9743 9.03125C28.7985 8.89453 28.7071 8.89453 18.2727 8.89453C10.1165 8.90137 7.72583 8.91504 7.64146 8.9834Z" fill="#007AFF"/>
<path d="M13.9978 12.8047C13.6813 13.1396 13.7446 13.5908 14.1243 13.7822C14.4196 13.9326 28.5806 13.9326 28.8759 13.7822C29.2556 13.5908 29.3188 13.1396 29.0024 12.8047L28.8618 12.6543H21.5001H14.1384L13.9978 12.8047Z" fill="#007AFF"/>
<path d="M6.52344 14.0762C6.41094 14.165 6.33359 14.3564 6.24922 14.7324L6.13672 15.2588L5.69375 15.4365L5.25078 15.6074L4.81484 15.3135C4.11875 14.8418 4.08359 14.8555 3.00078 15.9082C1.93203 16.9609 1.93203 16.9678 2.41016 17.6514L2.72656 18.1025L2.53672 18.5059C2.43828 18.7246 2.31875 18.9297 2.28359 18.9502C2.24844 18.9775 2.05859 19.0186 1.86172 19.0391C1.38359 19.1074 1.1375 19.2373 1.04609 19.4971C1.00391 19.6201 0.96875 20.1738 0.96875 20.7686C0.96875 22.2314 1.03906 22.3613 1.91094 22.4639L2.31172 22.5117L2.51562 22.9561L2.71953 23.4004L2.41016 23.8447C1.91797 24.5352 1.925 24.5488 3.02891 25.6221C4.12578 26.6885 4.13281 26.6885 4.83594 26.2373L5.29297 25.9365L5.72891 26.1279L6.15781 26.3193L6.24219 26.7979C6.3125 27.1943 6.36172 27.3105 6.5375 27.4541C6.74141 27.625 6.7625 27.625 8 27.625C9.2375 27.625 9.25859 27.625 9.4625 27.4541C9.63828 27.3105 9.6875 27.1943 9.75781 26.7979L9.84219 26.3193L10.2711 26.1279L10.707 25.9365L11.1641 26.2373C11.8672 26.6885 11.8742 26.6885 12.9711 25.6221C14.075 24.5488 14.082 24.5352 13.5898 23.8447L13.2734 23.3936L13.4773 22.9561L13.6812 22.5186L14.0891 22.4639C14.9609 22.3613 15.0312 22.2314 15.0312 20.7617C15.0312 19.292 14.9609 19.1416 14.2086 19.0391C14.0117 19.0186 13.8219 18.9775 13.7797 18.9502C13.7445 18.9297 13.625 18.7246 13.5266 18.5059L13.3438 18.1025L13.6602 17.6514C14.1102 17.0156 14.0961 16.9268 13.4352 16.2637C13.1328 15.9629 12.7039 15.5596 12.4719 15.3682C11.9445 14.917 11.7687 14.9102 11.1852 15.3135L10.7492 15.6074L10.3062 15.4365L9.86328 15.2588L9.75078 14.7324C9.58203 13.9531 9.59609 13.9531 7.99297 13.9531C6.82578 13.9531 6.66406 13.9668 6.52344 14.0762ZM8.60469 15.5117C8.64687 15.7441 8.73828 15.9902 8.79453 16.0586C8.85781 16.127 9.09688 16.2363 9.31484 16.3047C9.53984 16.373 9.93359 16.5371 10.1867 16.6602C10.4398 16.79 10.7141 16.8926 10.7914 16.8926C10.8687 16.8926 11.1008 16.7832 11.3047 16.6465L11.6703 16.4004L12.05 16.7627L12.4227 17.1182L12.1836 17.4463C11.8742 17.8496 11.8742 18.0684 12.1766 18.6562C12.3031 18.9092 12.4648 19.2783 12.5352 19.4766C12.5984 19.6748 12.725 19.8799 12.8094 19.9346C12.9289 20.0098 13.5617 20.1738 13.7375 20.1738C13.7516 20.1738 13.7656 20.4199 13.7656 20.7139V21.2607L13.3508 21.3428C12.8516 21.4385 12.7039 21.5684 12.5422 22.0879C12.4719 22.293 12.3242 22.6279 12.2117 22.833C11.9375 23.332 11.9445 23.5986 12.2469 24.002L12.4859 24.3232L12.1133 24.6855L11.7406 25.041L11.375 24.7949C11.1711 24.6582 10.932 24.5488 10.8406 24.5488C10.7492 24.5488 10.468 24.6582 10.2078 24.7881C9.95469 24.918 9.58203 25.0752 9.37813 25.1299C8.89297 25.2666 8.76641 25.4102 8.66797 25.9365L8.59062 26.3604H8.03516H7.47969L7.39531 25.9639C7.29688 25.4854 7.16328 25.3281 6.72734 25.2051C6.54453 25.1504 6.16484 24.9932 5.89062 24.8633C5.61641 24.7266 5.31406 24.6172 5.22266 24.6172C5.13828 24.6172 4.89219 24.7266 4.68828 24.8564L4.32266 25.1025L3.95 24.7471L3.57734 24.3916L3.81641 24.0635C4.12578 23.6602 4.12578 23.4414 3.82344 22.8535C3.68984 22.5938 3.52813 22.2109 3.46484 21.999C3.32422 21.5342 3.21172 21.4453 2.6 21.3291L2.16406 21.2471V20.748C2.16406 20.4678 2.17813 20.2422 2.19219 20.2422C2.36797 20.2422 3.00078 20.0781 3.12031 20.0029C3.20469 19.9482 3.33125 19.7432 3.39453 19.5449C3.46484 19.3467 3.62656 18.9775 3.75312 18.7246C4.0625 18.1299 4.0625 17.8906 3.75312 17.4941L3.50703 17.1865L3.88672 16.8242L4.26641 16.4551L4.57578 16.667C5.05391 17.002 5.1875 17.0088 5.72891 16.7354C5.99609 16.6055 6.41797 16.4346 6.68516 16.3457C7.21953 16.1748 7.31797 16.0654 7.40234 15.4912C7.43047 15.2998 7.46562 15.1221 7.48672 15.0947C7.50781 15.0674 7.74687 15.0469 8.02109 15.0605L8.52734 15.0811L8.60469 15.5117Z" fill="#007AFF"/>
<path d="M7.2125 17.7129C6.37578 17.918 5.49687 18.6152 5.13125 19.3672C4.50547 20.6318 4.75156 22.0059 5.77812 22.9834C7.01562 24.1729 9.06172 24.1523 10.2781 22.9355C11.8391 21.3906 11.368 18.8613 9.35703 17.9316C8.88594 17.7197 8.75937 17.6924 8.15469 17.6719C7.775 17.6582 7.35312 17.6787 7.2125 17.7129ZM8.91406 19.1211C9.53984 19.4561 9.89844 20.0303 9.89844 20.7207C9.89844 21.4932 9.53281 22.0879 8.85781 22.4092C7.83125 22.9014 6.55156 22.4092 6.2 21.3906C6.02422 20.8779 6.09453 20.2012 6.35469 19.7773C6.57266 19.4424 7.07891 19.0596 7.46562 18.9434C7.85234 18.8271 8.50625 18.9092 8.91406 19.1211Z" fill="#007AFF"/>
<path d="M16.7399 16.4414C16.2196 16.667 16.2406 17.3574 16.768 17.5693C16.9156 17.624 18.5328 17.6445 22.8852 17.6308L28.8125 17.6103L29.0024 17.4258C29.2625 17.1728 29.2625 16.8174 29.0024 16.5644L28.8125 16.3799L22.8852 16.3662C17.9563 16.3525 16.9297 16.3662 16.7399 16.4414Z" fill="#007AFF"/>
</svg>
