<svg width="42" height="42" viewBox="0 0 42 42" fill="none" xmlns="http://www.w3.org/2000/svg">
<path d="M20.16 25.376V33.1585C20.16 33.8532 19.5959 34.4163 18.9 34.4163H2.94C2.24413 34.4163 1.68 33.8532 1.68 33.1585V8.84116C1.68 8.14644 2.24413 7.58334 2.94 7.58334H18.9C19.5959 7.58334 20.16 8.1464 20.16 8.84116V18.7359C20.16 19.199 20.5361 19.5745 21 19.5745C21.4639 19.5745 21.84 19.199 21.84 18.7359V8.84116C21.84 7.22014 20.5236 5.90625 18.9 5.90625H2.94C1.31636 5.90625 0 7.22014 0 8.84116V33.1585C0 34.7795 1.31636 36.0934 2.94 36.0934H18.9C20.5236 36.0934 21.84 34.7795 21.84 33.1585V25.376C21.84 24.9128 21.4639 24.5374 21 24.5374C20.5361 24.5374 20.16 24.9128 20.16 25.376Z" fill="#009100"/>
<path d="M16.3801 13.453C16.6121 13.453 16.8001 13.2653 16.8001 13.0337V11.3566C16.8001 11.125 16.6121 10.9373 16.3801 10.9373H5.46011C5.22808 10.9373 5.04011 11.125 5.04011 11.3566V13.0337C5.04011 13.2653 5.22808 13.453 5.46011 13.453H16.3801ZM16.3801 15.13H5.46011C4.30027 15.13 3.36011 14.1915 3.36011 13.0337V11.3566C3.36011 10.1988 4.30027 9.26025 5.46011 9.26025H16.3801C17.5399 9.26025 18.4801 10.1988 18.4801 11.3566V13.0337C18.4801 14.1915 17.5399 15.13 16.3801 15.13ZM7.49157 19.1668C7.71584 20.3483 6.69734 21.3651 5.5138 21.1412C4.85648 21.0166 4.31848 20.4795 4.19416 19.8234C3.96948 18.6419 4.98798 17.6252 6.17152 17.8491C6.82925 17.9736 7.36684 18.5107 7.49157 19.1668ZM12.5316 19.1668C12.7558 20.3483 11.7373 21.3651 10.5538 21.1412C9.89648 21.0166 9.35848 20.4795 9.23416 19.8234C9.00948 18.6419 10.028 17.6252 11.2115 17.8491C11.8693 17.9736 12.4068 18.5107 12.5316 19.1668ZM7.49157 24.24C7.71584 25.4215 6.69734 26.4383 5.5138 26.2143C4.85648 26.0898 4.31848 25.5527 4.19416 24.8966C3.96948 23.7151 4.98798 22.6984 6.17152 22.9223C6.82925 23.0468 7.36684 23.5839 7.49157 24.24ZM12.5316 24.24C12.7558 25.4215 11.7373 26.4383 10.5538 26.2143C9.89648 26.0898 9.35848 25.5527 9.23416 24.8966C9.00948 23.7151 10.028 22.6984 11.2115 22.9223C11.8693 23.0468 12.4068 23.5839 12.5316 24.24ZM17.5716 24.24C17.7958 25.4215 16.7773 26.4383 15.5938 26.2143C14.9365 26.0898 14.3985 25.5527 14.2742 24.8966C14.0495 23.7151 15.068 22.6984 16.2515 22.9223C16.9092 23.0468 17.4468 23.5839 17.5716 24.24ZM7.49157 29.2713C7.71584 30.4528 6.69734 31.4695 5.5138 31.2456C4.85648 31.1211 4.31848 30.584 4.19416 29.9279C3.96948 28.7464 4.98798 27.7296 6.17152 27.9535C6.82925 28.0781 7.36684 28.6152 7.49157 29.2713ZM12.5316 29.2713C12.7558 30.4528 11.7373 31.4695 10.5538 31.2456C9.89648 31.1211 9.35848 30.584 9.23416 29.9279C9.00948 28.7464 10.028 27.7296 11.2115 27.9535C11.8693 28.0781 12.4068 28.6152 12.5316 29.2713ZM17.5716 29.2713C17.7958 30.4528 16.7773 31.4695 15.5938 31.2456C14.9365 31.1211 14.3985 30.584 14.2742 29.9279C14.0495 28.7464 15.068 27.7296 16.2515 27.9535C16.9092 28.0781 17.4468 28.6152 17.5716 29.2713ZM24.9326 27.7549L16.743 19.5796C16.3436 19.1809 16.3436 18.5341 16.743 18.1354L16.9402 17.939C17.3404 17.5393 17.988 17.5393 18.3874 17.9381L26.5772 26.1132C26.9052 26.4407 27.4371 26.4407 27.7651 26.1132C28.0931 25.7857 28.0931 25.2548 27.7651 24.9273L19.5755 16.7524C18.5201 15.6983 16.8082 15.6983 15.7527 16.7526L15.5557 16.9488C14.4996 18.0031 14.4996 19.7118 15.5551 20.7654L23.7447 28.9408C24.0728 29.2683 24.6046 29.2683 24.9326 28.9408C25.2607 28.6133 25.2607 28.0824 24.9326 27.7549L24.9326 27.7549Z" fill="#009100"/>
<path d="M27.8226 24.9851L23.5349 20.7047C23.1351 20.3057 23.1351 19.6594 23.5347 19.2607L23.7329 19.0624C24.1317 18.6644 24.7796 18.6644 25.179 19.063L29.4672 23.3434C29.7953 23.6709 30.3271 23.6708 30.6551 23.3433C30.9831 23.0159 30.9831 22.4849 30.6551 22.1575L26.3669 17.8771C25.3115 16.8235 23.5998 16.8235 22.5443 17.8772L22.3463 18.0753C21.291 19.1281 21.291 20.8365 22.3469 21.8906L26.6347 26.1709C26.9628 26.4984 27.4946 26.4984 27.8226 26.1709C28.1507 25.8435 28.1507 25.3125 27.8226 24.9851Z" fill="#009100"/>
<path d="M31.4452 22.947L27.1574 18.6666C26.7577 18.2676 26.7577 17.6213 27.1573 17.2226L27.3555 17.0243C27.7542 16.6263 28.4021 16.6263 28.8015 17.025L33.0898 21.3053C33.4178 21.6328 33.9497 21.6327 34.2777 21.3053C34.6057 20.9778 34.6057 20.4468 34.2777 20.1194L29.9895 15.839C28.934 14.7854 27.2224 14.7854 26.1669 15.8391L25.9689 16.0372C24.9136 17.09 24.9136 18.7984 25.9695 19.8525L30.2573 24.1328C30.5853 24.4603 31.1172 24.4603 31.4452 24.1328C31.7732 23.8054 31.7732 23.2745 31.4452 22.947Z" fill="#009100"/>
<path d="M35.0592 20.926L30.7714 16.6457C30.3716 16.2466 30.3716 15.6003 30.7712 15.2016L30.9694 15.0033C31.3682 14.6053 32.0161 14.6053 32.4155 15.004L36.7037 19.2843C37.0318 19.6118 37.5636 19.6117 37.8916 19.2843C38.2196 18.9568 38.2197 18.4259 37.8916 18.0984L33.6034 13.818C32.548 12.7644 30.8363 12.7644 29.7809 13.8181L29.5828 14.0162C28.5275 15.0691 28.5275 16.7774 29.5834 17.8315L33.8712 22.1118C34.1993 22.4393 34.7311 22.4393 35.0592 22.1118C35.3872 21.7844 35.3872 21.2534 35.0592 20.926V20.926ZM28.1225 30.9394L24.3081 27.1315L23.1201 28.3174L26.9346 32.1252L28.1225 30.9394Z" fill="#009100"/>
<path d="M33.572 16.1585L38.4759 21.054L39.6639 19.8681L34.76 14.9727L33.572 16.1585Z" fill="#009100"/>
<path d="M38.1922 20.7638C39.5358 22.0977 40.3041 23.9039 40.3041 25.8336C40.3041 29.7824 37.0976 32.9834 33.1419 32.9834C31.2157 32.9834 29.4126 32.2222 28.0776 30.8895L26.8896 32.0754C28.5366 33.7194 30.7656 34.6605 33.1419 34.6605C38.0254 34.6605 41.9841 30.7087 41.9841 25.8336C41.9841 23.453 41.0344 21.2203 39.3769 19.5747L38.1922 20.7638V20.7638Z" fill="#009100"/>
</svg>
