<svg width="30" height="31" viewBox="0 0 30 31" fill="none" xmlns="http://www.w3.org/2000/svg">
<g clip-path="url(#clip0_41_706)">
<path opacity="0.994" fill-rule="evenodd" clip-rule="evenodd" d="M2.7832 -0.0302734C8.4082 -0.0302734 14.0332 -0.0302734 19.6582 -0.0302734C21.1612 0.342265 22.089 1.31102 22.4414 2.87598C22.4805 7.73989 22.4805 12.6039 22.4414 17.4678C22.0019 18.1513 21.455 18.2522 20.8008 17.7705C20.7422 17.6696 20.6836 17.5687 20.625 17.4678C20.5957 15.5102 20.5859 13.5525 20.5957 11.5947C14.3457 11.5947 8.09572 11.5947 1.8457 11.5947C1.8457 14.1781 1.8457 16.7614 1.8457 19.3447C7.68557 19.3346 13.5254 19.3447 19.3652 19.375C19.9857 19.7041 20.1518 20.1986 19.8633 20.8584C19.7306 21.036 19.5646 21.1672 19.3652 21.252C13.5254 21.2822 7.68557 21.2923 1.8457 21.2822C1.83594 23.3207 1.8457 25.3591 1.875 27.3975C1.95507 28.348 2.45312 28.8829 3.36914 29.002C7.88086 29.0221 12.3926 29.0423 16.9043 29.0625C17.5534 29.4985 17.6608 30.0535 17.2266 30.7275C17.1038 30.8259 16.9769 30.9066 16.8457 30.9697C12.1582 30.9697 7.4707 30.9697 2.7832 30.9697C1.27929 30.5863 0.341797 29.6175 -0.0292969 28.0635C-0.0292969 19.6475 -0.0292969 11.2314 -0.0292969 2.81543C0.367977 1.29487 1.30547 0.346302 2.7832 -0.0302734ZM3.36914 1.90723C8.60355 1.89713 13.8379 1.90723 19.0723 1.9375C19.9883 2.05658 20.4863 2.59141 20.5664 3.54199C20.5957 5.5803 20.6055 7.61873 20.5957 9.65723C14.3457 9.65723 8.09572 9.65723 1.8457 9.65723C1.81912 7.47566 1.84842 5.29597 1.93359 3.11816C2.17329 2.40493 2.65181 2.00129 3.36914 1.90723Z" fill="#FAFF00"/>
<path opacity="0.951" fill-rule="evenodd" clip-rule="evenodd" d="M5.88879 5.11619C7.07672 5.06877 7.59434 5.65405 7.44153 6.87205C7.02153 7.70306 6.38678 7.93513 5.53723 7.56834C4.91534 7.04443 4.78838 6.40869 5.15637 5.66111C5.34968 5.39579 5.59381 5.21415 5.88879 5.11619Z" fill="#FAFF00"/>
<path opacity="0.946" fill-rule="evenodd" clip-rule="evenodd" d="M10.8692 5.11624C12.1843 5.09238 12.6823 5.73821 12.3634 7.05374C11.8601 7.76274 11.2253 7.91411 10.4591 7.50784C9.87021 6.94911 9.78232 6.31337 10.1954 5.60061C10.3994 5.39844 10.624 5.23698 10.8692 5.11624Z" fill="#FAFF00"/>
<path opacity="0.951" fill-rule="evenodd" clip-rule="evenodd" d="M15.9082 5.11624C17.0105 5.07452 17.5281 5.61944 17.461 6.751C17.1043 7.68185 16.4695 7.95431 15.5567 7.56839C15.0374 7.19045 14.8519 6.67581 15 6.02444C15.1467 5.55091 15.4494 5.24817 15.9082 5.11624Z" fill="#FAFF00"/>
<path opacity="0.963" fill-rule="evenodd" clip-rule="evenodd" d="M24.4043 19.3447C25.9187 19.1666 26.9246 19.8125 27.4219 21.2822C27.6761 22.7653 27.139 23.8046 25.8106 24.4004C24.7701 24.7142 23.8619 24.4821 23.086 23.7041C22.4049 22.7694 22.2877 21.7603 22.7344 20.6768C23.1168 19.9878 23.6734 19.5438 24.4043 19.3447ZM24.7559 21.3428C25.1597 21.2664 25.4234 21.4279 25.5469 21.8272C25.5196 22.4015 25.2364 22.6134 24.6973 22.4629C24.4247 22.2848 24.3368 22.0325 24.4336 21.7061C24.5133 21.5533 24.6207 21.4322 24.7559 21.3428Z" fill="#FAFF00"/>
<path opacity="0.964" fill-rule="evenodd" clip-rule="evenodd" d="M29.9708 28.669C29.9708 29.2341 29.9708 29.7992 29.9708 30.3643C29.8341 30.6266 29.6387 30.8285 29.3848 30.9698C29.1505 30.9698 28.9161 30.9698 28.6817 30.9698C28.4291 30.8398 28.2436 30.638 28.1251 30.3643C28.1317 29.7655 28.0535 29.1802 27.8907 28.6084C27.625 28.1634 27.2441 27.8909 26.7481 27.791C25.5567 27.7507 24.3653 27.7507 23.1739 27.791C22.5051 27.9373 22.0852 28.351 21.9141 29.0323C21.9081 29.5011 21.8691 29.9653 21.797 30.4248C21.656 30.6615 21.4705 30.8431 21.2403 30.9698C21.0255 30.9698 20.8106 30.9698 20.5958 30.9698C20.3055 30.8412 20.1004 30.6192 19.9806 30.3037C19.7047 28.4221 20.3589 27.0194 21.9434 26.0957C22.1698 25.9909 22.4042 25.9101 22.6466 25.8535C24.0705 25.757 25.4963 25.7368 26.9239 25.793C28.531 26.0916 29.5466 27.0503 29.9708 28.669Z" fill="#FAFF00"/>
</g>
<defs>
<clipPath id="clip0_41_706">
<rect width="30" height="31" fill="white"/>
</clipPath>
</defs>
</svg>
