<svg width="288" height="288" viewBox="0 0 288 288" fill="none" xmlns="http://www.w3.org/2000/svg">
<g clip-path="url(#clip0_97_1762)">
<path d="M282 144V204C282 205.591 281.368 207.117 280.243 208.243C279.117 209.368 277.591 210 276 210H180L198 192L234 156L252 138H276C277.591 138 279.117 138.632 280.243 139.757C281.368 140.883 282 142.409 282 144Z" fill="#A4B0C0"/>
<path d="M282 36V96C282 97.5913 281.368 99.1174 280.243 100.243C279.117 101.368 277.591 102 276 102H180L198 84L234 48L252 30H276C277.591 30 279.117 30.6321 280.243 31.7574C281.368 32.8826 282 34.4087 282 36Z" fill="#FED049"/>
<path d="M252 210V282H228V258H60V282H36V210H60V234H228V210H252Z" fill="#D0D7DF"/>
<path d="M252 102H228V138H252V102Z" fill="#D0D7DF"/>
<path d="M251.999 30L233.999 48L197.999 84L179.999 102L108.119 101.88L125.999 84L161.999 48L179.999 30H191.999H215.999H239.999H251.999Z" fill="#A4B0C0"/>
<path d="M252.666 138L234.546 156L198.3 192L180.18 210H108V209.7L125.82 192L162.06 156L180 138.18V138H228.504H252.666Z" fill="#FED049"/>
<path d="M240 12V30H48V12C48 10.4087 48.6321 8.88258 49.7574 7.75736C50.8826 6.63214 52.4087 6 54 6H234C235.591 6 237.117 6.63214 238.243 7.75736C239.368 8.88258 240 10.4087 240 12Z" fill="#D0D7DF"/>
<path d="M180.721 30L162.721 48L108.721 102H60.7207H36.7207L54.7207 84L90.7207 48L108.001 30.72V30H180.721Z" fill="#FED049"/>
<path d="M180.001 138V138.18L162.061 156L108.001 209.7V210H59.3768H35.2148L53.3348 192L89.5808 156L107.701 138H180.001Z" fill="#A4B0C0"/>
<path d="M108 138L90 156L54 192L36 210H12C10.4087 210 8.88258 209.368 7.75736 208.243C6.63214 207.117 6 205.591 6 204V144C6 142.409 6.63214 140.883 7.75736 139.757C8.88258 138.632 10.4087 138 12 138H108Z" fill="#FED049"/>
<path d="M108 30V30.72L90.6 48L54.342 84L36.216 102H12C10.4087 102 8.88258 101.368 7.75736 100.243C6.63214 99.1174 6 97.5913 6 96V36C6 34.4087 6.63214 32.8826 7.75736 31.7574C8.88258 30.6321 10.4087 30 12 30H108Z" fill="#A4B0C0"/>
<path d="M60 102H36V138H60V102Z" fill="#D0D7DF"/>
<path d="M228 204H60C58.4087 204 56.8826 204.632 55.7574 205.757C54.6321 206.883 54 208.409 54 210V234C54 235.591 54.6321 237.117 55.7574 238.243C56.8826 239.368 58.4087 240 60 240H228C229.591 240 231.117 239.368 232.243 238.243C233.368 237.117 234 235.591 234 234V210C234 208.409 233.368 206.883 232.243 205.757C231.117 204.632 229.591 204 228 204ZM222 228H66V216H222V228Z" fill="#474C54"/>
<path d="M276 108C279.183 108 282.235 106.736 284.485 104.485C286.736 102.235 288 99.1826 288 96V36C288 32.8174 286.736 29.7652 284.485 27.5147C282.235 25.2643 279.183 24 276 24H246V12C246 8.8174 244.736 5.76516 242.485 3.51472C240.235 1.26428 237.183 0 234 0L54 0C50.8174 0 47.7652 1.26428 45.5147 3.51472C43.2643 5.76516 42 8.8174 42 12V24H12C8.8174 24 5.76516 25.2643 3.51472 27.5147C1.26428 29.7652 0 32.8174 0 36L0 96C0 99.1826 1.26428 102.235 3.51472 104.485C5.76516 106.736 8.8174 108 12 108H30V132H12C8.8174 132 5.76516 133.264 3.51472 135.515C1.26428 137.765 0 140.817 0 144L0 204C0 207.183 1.26428 210.235 3.51472 212.485C5.76516 214.736 8.8174 216 12 216H30V282C30 283.591 30.6321 285.117 31.7574 286.243C32.8826 287.368 34.4087 288 36 288H60C61.5913 288 63.1174 287.368 64.2426 286.243C65.3679 285.117 66 283.591 66 282V264H222V282C222 283.591 222.632 285.117 223.757 286.243C224.883 287.368 226.409 288 228 288H252C253.591 288 255.117 287.368 256.243 286.243C257.368 285.117 258 283.591 258 282V216H276C279.183 216 282.235 214.736 284.485 212.485C286.736 210.235 288 207.183 288 204V144C288 140.817 286.736 137.765 284.485 135.515C282.235 133.264 279.183 132 276 132H258V108H276ZM12 36H192C193.591 36 195.117 35.3679 196.243 34.2426C197.368 33.1174 198 31.5913 198 30C198 28.4087 197.368 26.8826 196.243 25.7574C195.117 24.6321 193.591 24 192 24H54V12H234V24H216C214.409 24 212.883 24.6321 211.757 25.7574C210.632 26.8826 210 28.4087 210 30C210 31.5913 210.632 33.1174 211.757 34.2426C212.883 35.3679 214.409 36 216 36H276V96H12V36ZM66 132V108H222V132H66ZM42 108H54V132H42V108ZM234 108H246V132H234V108ZM276 204H252C250.409 204 248.883 204.632 247.757 205.757C246.632 206.883 246 208.409 246 210V276H234V258C234 256.409 233.368 254.883 232.243 253.757C231.117 252.632 229.591 252 228 252H60C58.4087 252 56.8826 252.632 55.7574 253.757C54.6321 254.883 54 256.409 54 258V276H42V210C42 208.409 41.3679 206.883 40.2426 205.757C39.1174 204.632 37.5913 204 36 204H12V144H276V204Z" fill="#474C54"/>
<path d="M58.2415 196.242L94.2415 160.242C95.3345 159.11 95.9392 157.595 95.9256 156.022C95.9119 154.448 95.2809 152.944 94.1684 151.831C93.056 150.719 91.5511 150.088 89.9779 150.074C88.4047 150.06 86.8891 150.665 85.7575 151.758L49.7575 187.758C49.1845 188.311 48.7274 188.974 48.4129 189.706C48.0984 190.438 47.9329 191.225 47.926 192.022C47.9191 192.818 48.0709 193.608 48.3726 194.346C48.6743 195.083 49.1198 195.753 49.6831 196.316C50.2465 196.88 50.9164 197.325 51.6538 197.627C52.3912 197.929 53.1812 198.08 53.9779 198.073C54.7746 198.067 55.5619 197.901 56.2939 197.587C57.026 197.272 57.688 196.815 58.2415 196.242Z" fill="#474C54"/>
<path d="M126.001 198C127.592 198 129.118 197.367 130.243 196.242L166.243 160.242C167.336 159.11 167.94 157.595 167.927 156.022C167.913 154.448 167.282 152.944 166.17 151.831C165.057 150.719 163.552 150.088 161.979 150.074C160.406 150.06 158.89 150.665 157.759 151.758L121.759 187.758C120.92 188.597 120.349 189.666 120.117 190.83C119.886 191.994 120.005 193.2 120.459 194.296C120.913 195.392 121.681 196.329 122.668 196.988C123.654 197.648 124.814 198 126.001 198Z" fill="#474C54"/>
<path d="M229.758 151.758L193.758 187.758C193.184 188.311 192.727 188.974 192.413 189.706C192.098 190.438 191.933 191.225 191.926 192.022C191.919 192.818 192.071 193.608 192.373 194.346C192.674 195.083 193.12 195.753 193.683 196.316C194.247 196.88 194.916 197.325 195.654 197.627C196.391 197.929 197.181 198.08 197.978 198.073C198.775 198.067 199.562 197.901 200.294 197.587C201.026 197.272 201.688 196.815 202.242 196.242L238.242 160.242C239.334 159.11 239.939 157.595 239.926 156.022C239.912 154.448 239.281 152.944 238.168 151.831C237.056 150.719 235.551 150.088 233.978 150.074C232.405 150.06 230.889 150.665 229.758 151.758Z" fill="#474C54"/>
<path d="M54.0007 90C55.5918 89.9997 57.1177 89.3673 58.2427 88.242L94.2427 52.242C94.8157 51.6885 95.2728 51.0264 95.5873 50.2944C95.9017 49.5624 96.0673 48.7751 96.0742 47.9784C96.0811 47.1817 95.9293 46.3917 95.6276 45.6543C95.3259 44.9169 94.8804 44.247 94.317 43.6836C93.7537 43.1203 93.0838 42.6748 92.3464 42.3731C91.609 42.0714 90.8189 41.9196 90.0223 41.9265C89.2256 41.9334 88.4383 42.0989 87.7062 42.4134C86.9742 42.7278 86.3122 43.1849 85.7587 43.758L49.7587 79.758C48.9198 80.5971 48.3486 81.6661 48.1172 82.8298C47.8858 83.9935 48.0046 85.1997 48.4586 86.2959C48.9126 87.3921 49.6815 88.3291 50.6679 88.9884C51.6544 89.6477 52.8142 89.9997 54.0007 90Z" fill="#474C54"/>
<path d="M126.001 90C127.592 89.9997 129.118 89.3673 130.243 88.242L166.243 52.242C166.816 51.6885 167.273 51.0264 167.587 50.2944C167.902 49.5624 168.067 48.7751 168.074 47.9784C168.081 47.1817 167.929 46.3917 167.628 45.6543C167.326 44.9169 166.88 44.247 166.317 43.6836C165.754 43.1203 165.084 42.6748 164.346 42.3731C163.609 42.0714 162.819 41.9196 162.022 41.9265C161.226 41.9334 160.438 42.0989 159.706 42.4134C158.974 42.7278 158.312 43.1849 157.759 43.758L121.759 79.758C120.92 80.5971 120.349 81.6661 120.117 82.8298C119.886 83.9935 120.005 85.1997 120.459 86.2959C120.913 87.3921 121.681 88.3291 122.668 88.9884C123.654 89.6477 124.814 89.9997 126.001 90Z" fill="#474C54"/>
<path d="M198.001 90C199.592 89.9997 201.118 89.3673 202.243 88.242L238.243 52.242C238.816 51.6885 239.273 51.0264 239.587 50.2944C239.902 49.5624 240.067 48.7751 240.074 47.9784C240.081 47.1817 239.929 46.3917 239.628 45.6543C239.326 44.9169 238.88 44.247 238.317 43.6836C237.754 43.1203 237.084 42.6748 236.346 42.3731C235.609 42.0714 234.819 41.9196 234.022 41.9265C233.226 41.9334 232.438 42.0989 231.706 42.4134C230.974 42.7278 230.312 43.1849 229.759 43.758L193.759 79.758C192.92 80.5971 192.349 81.6661 192.117 82.8298C191.886 83.9935 192.005 85.1997 192.459 86.2959C192.913 87.3921 193.681 88.3291 194.668 88.9884C195.654 89.6477 196.814 89.9997 198.001 90Z" fill="#474C54"/>
</g>
<defs>
<clipPath id="clip0_97_1762">
<rect width="288" height="288" fill="white"/>
</clipPath>
</defs>
</svg>
