<svg width="30" height="30" viewBox="0 0 30 30" fill="none" xmlns="http://www.w3.org/2000/svg">
<g clip-path="url(#clip0_41_719)">
<path d="M2.58984 0.117165C1.96875 0.281227 1.49414 0.556618 1.02539 1.02537C0.550781 1.49998 0.28125 1.96873 0.117188 2.61326C0 3.05857 0 3.30466 0 15C0 26.6953 0 26.9414 0.117188 27.3867C0.181641 27.6387 0.316406 28.0019 0.421875 28.2012C0.697266 28.7168 1.33594 29.3379 1.86328 29.6015C2.68945 30.0176 2.41406 30.0058 9.38672 29.9883C15.6211 29.9707 15.6387 29.9707 15.8027 29.8476C16.377 29.4199 16.377 28.7051 15.8027 28.2773C15.6387 28.1543 15.6152 28.1543 9.32812 28.125C3.1875 28.0957 3.01172 28.0898 2.7832 27.9785C2.6543 27.914 2.4375 27.7558 2.30273 27.6211C1.875 27.1933 1.875 27.1816 1.875 23.6894V20.625L6.87891 20.6133C11.8535 20.5957 11.8887 20.5957 12.0527 20.4726C12.627 20.0449 12.627 19.3301 12.0527 18.9023C11.8887 18.7793 11.8535 18.7793 6.87891 18.7617L1.875 18.75V15V11.25H9.30469C16.418 11.25 16.7402 11.2441 16.9688 11.1386C17.6426 10.834 17.6543 9.83201 16.9863 9.49216C16.7695 9.37498 16.6055 9.37498 9.31641 9.37498H1.875V6.31052C1.875 2.75974 1.86914 2.80662 2.34961 2.33787C2.85938 1.83982 2.19727 1.87498 11.25 1.87498C20.25 1.87498 19.6641 1.84568 20.1211 2.30271C20.6191 2.80076 20.5898 2.61326 20.625 6.18162C20.6543 9.30466 20.6543 9.34568 20.7832 9.55076C21.1641 10.166 22.0664 10.1191 22.377 9.46873C22.4941 9.22849 22.5 9.13474 22.5 6.1406C22.5 3.26951 22.4941 3.03513 22.3828 2.61326C22.2188 1.97459 21.9492 1.49998 21.4746 1.02537C21 0.544899 20.5371 0.281227 19.8867 0.117165C19.4473 0.00583649 19.2129 -2.28882e-05 11.2266 0.00583649C3.33984 0.00583649 3 0.0116959 2.58984 0.117165Z" fill="#009100"/>
<path d="M5.90629 5.05077C5.78324 5.08006 5.56644 5.21483 5.42582 5.34373C4.76371 5.91795 4.90433 6.95506 5.68949 7.34764C6.20512 7.60545 6.72074 7.52342 7.12504 7.11912C8.01566 6.2285 7.12504 4.71092 5.90629 5.05077Z" fill="#009100"/>
<path d="M10.957 5.03319C10.3418 5.23241 10.0195 5.65429 10.0195 6.26952C10.0195 6.60937 10.1543 6.91991 10.4121 7.16015C11.0215 7.74022 12.0117 7.54101 12.3691 6.76757C12.5684 6.33397 12.4805 5.73632 12.1699 5.40233C11.8945 5.10351 11.2969 4.92187 10.957 5.03319Z" fill="#009100"/>
<path d="M15.9493 5.03907C15.6153 5.11524 15.3164 5.36133 15.1524 5.68946C14.8946 6.21094 14.9707 6.71485 15.3692 7.11329C15.7793 7.52344 16.2891 7.60548 16.8106 7.34766C17.5547 6.97266 17.7188 6.06446 17.1563 5.42579C16.9864 5.22657 16.8457 5.13282 16.6231 5.06837C16.3008 4.97462 16.2364 4.96876 15.9493 5.03907Z" fill="#009100"/>
<path d="M18.9199 13.2363C16.9453 13.8457 15.4746 14.3262 15.3633 14.4023C14.9942 14.6719 14.9883 14.6836 15.0176 18.2578C15.0352 21.2988 15.0469 21.5039 15.1641 22.0371C15.7207 24.498 17.1504 26.5605 19.541 28.3594C20.6133 29.168 22.1133 30 22.4942 30C22.6172 30 22.9102 29.8887 23.2676 29.7129C24.8145 28.9277 26.3672 27.7559 27.4336 26.5723C28.711 25.1543 29.4434 23.7598 29.836 22.0312C29.9531 21.5098 29.9649 21.2812 29.9824 18.2578C30.0117 14.625 30.0117 14.6543 29.5957 14.3848C29.4727 14.3027 28.0606 13.8398 26.1914 13.2715C24.4336 12.7383 22.9219 12.2754 22.8282 12.2402C22.7344 12.2109 22.5762 12.1875 22.4766 12.1934C22.377 12.1934 20.7774 12.6621 18.9199 13.2363ZM21.5625 16.9336V19.4531H19.2188H16.875V17.6367V15.8262L17.2735 15.709C17.4903 15.6387 18.5098 15.3281 19.541 15.0059C20.5723 14.6836 21.4512 14.4199 21.4922 14.4199C21.5449 14.4141 21.5625 14.9531 21.5625 16.9336ZM25.166 14.918C26.0684 15.1934 27.1055 15.5098 27.4688 15.6211L28.125 15.8262V17.6426V19.4531H25.7813H23.4375V16.9336C23.4375 15.5449 23.4551 14.4141 23.4785 14.4141C23.502 14.4141 24.2578 14.6426 25.166 14.918ZM21.5625 24.4043V27.4863L21.2051 27.2402C20.5899 26.8242 19.7344 26.1094 19.2129 25.5703C18.0762 24.3926 17.3379 23.1152 17.0567 21.832L16.9453 21.3281H19.2539H21.5625V24.4043ZM27.9727 21.709C27.5449 23.7363 26.0801 25.6699 23.7774 27.2344C23.625 27.3398 23.4903 27.4219 23.4727 27.4219C23.4551 27.4219 23.4375 26.0508 23.4375 24.375V21.3281H25.7461H28.0547L27.9727 21.709Z" fill="#009100"/>
</g>
<defs>
<clipPath id="clip0_41_719">
<rect width="30" height="30" fill="white"/>
</clipPath>
</defs>
</svg>
