<svg width="29" height="29" viewBox="0 0 29 29" fill="none" xmlns="http://www.w3.org/2000/svg">
<g clip-path="url(#clip0_41_728)">
<path d="M3.25684 0.0906258C2.74707 0.203907 2.05039 0.532423 1.59727 0.877932C0.945899 1.3707 0.430469 2.12969 0.158594 3.00196L0.0283203 3.42676V14.5V25.5732L0.158594 25.998C0.611719 27.4254 1.58027 28.3939 3.00195 28.8414L3.42676 28.9717H6.76856H10.1104L10.4049 28.8357C10.7617 28.6771 11.1752 28.2523 11.3395 27.8785C11.5037 27.5104 11.5037 26.8646 11.3395 26.4965C11.1752 26.1227 10.7617 25.6979 10.4049 25.5393L10.1104 25.4033L7.00645 25.375L3.89688 25.3467L3.76094 25.1881L3.625 25.0295V14.5V3.97051L3.76094 3.81191L3.89688 3.65332L7.00645 3.625L10.1104 3.59668L10.4049 3.46074C10.7617 3.30215 11.1752 2.87734 11.3395 2.50352C11.5037 2.13535 11.5037 1.48965 11.3395 1.12149C11.1752 0.747658 10.7617 0.322853 10.4049 0.164259L10.1104 0.0283222L6.88184 0.0169945C4.18574 0.0113297 3.58535 0.0226574 3.25684 0.0906258Z" fill="#5086C1"/>
<path d="M20.9174 5.5168C20.3793 5.69238 19.8979 6.15117 19.7393 6.63262C19.6146 7.00078 19.6146 7.50488 19.7393 7.88437C19.8299 8.16191 19.9998 8.34883 22.0502 10.4049L24.2648 12.6309L23.8457 12.6365C23.6135 12.6422 19.8129 12.6648 15.4062 12.6818L7.3916 12.7158L7.06875 12.8744C6.71758 13.0443 6.41738 13.3445 6.21914 13.7184C6.11152 13.9223 6.08887 14.0469 6.08887 14.5C6.08887 14.9531 6.11152 15.0777 6.21914 15.2816C6.41738 15.6555 6.71758 15.9557 7.06875 16.1256L7.3916 16.2842H15.848C20.4926 16.2842 24.2988 16.2955 24.2988 16.3125C24.2988 16.3238 23.3189 17.3207 22.1238 18.5215C19.677 20.9684 19.6996 20.94 19.6939 21.6934C19.6826 22.2031 19.8525 22.6279 20.2037 22.9791C20.5775 23.3529 20.9004 23.4775 21.4951 23.4775C21.9369 23.4775 22.0445 23.4549 22.2881 23.3246C22.492 23.217 23.3133 22.4297 25.2617 20.4643C27.652 18.0627 27.9805 17.7059 28.2127 17.3037C28.7904 16.2898 28.966 15.6328 28.966 14.5C28.966 13.3445 28.7451 12.5572 28.1674 11.6113C27.7936 11.0053 22.6676 5.84531 22.2145 5.62441C21.852 5.44883 21.2742 5.39785 20.9174 5.5168Z" fill="#5086C1"/>
</g>
<defs>
<clipPath id="clip0_41_728">
<rect width="29" height="29" fill="white"/>
</clipPath>
</defs>
</svg>
