<svg width="42" height="42" viewBox="0 0 42 42" fill="none" xmlns="http://www.w3.org/2000/svg">
<g clip-path="url(#clip0_45_996)">
<path d="M28 17.5H14V15.75H28V17.5ZM19.4775 36.75L21.3395 38.5H6.125C3.7135 38.5 1.75 35.7525 1.75 32.375C1.75 28.9975 3.7135 26.25 6.125 26.25H8.75V10.0625C8.75 6.4435 10.7135 3.5 13.125 3.5H35.875C38.2865 3.5 40.1625 6.2475 40.1625 9.625C40.1625 13.0025 38.2865 15.75 35.875 15.75H33.25V28.2415L31.5 29.9548V10.0625C31.4848 8.39204 31.8688 6.7421 32.62 5.25H13.125C11.886 5.25 10.5 7.308 10.5 10.0625V26.25H28.9975L27.755 27.6955C26.7235 29.0324 26.1912 30.6875 26.25 32.375C26.2504 32.7801 26.2778 33.1846 26.3322 33.586L24.5262 31.8868C24.5695 30.5394 24.8925 29.2158 25.4747 28H6.125C4.72675 28 3.5 30.044 3.5 32.375C3.5 34.706 4.72675 36.75 6.125 36.75H19.4775ZM33.25 14H35.875C37.2732 14 38.5875 11.956 38.5875 9.625C38.5875 7.294 37.2732 5.25 35.875 5.25H34.6902C33.7113 6.66055 33.2069 8.3461 33.25 10.0625V14ZM14 22.75H28V21H14V22.75ZM28 10.5H14V12.25H28V10.5ZM39.3592 25.9333L27.1127 37.9225L22.1567 33.2622L20.958 34.5363L27.1355 40.348L40.5842 27.1845L39.3592 25.9333Z" fill="#8E2C9E"/>
</g>
<defs>
<clipPath id="clip0_45_996">
<rect width="42" height="42" fill="white"/>
</clipPath>
</defs>
</svg>
