<svg width="42" height="42" viewBox="0 0 42 42" fill="none" xmlns="http://www.w3.org/2000/svg">
<g clip-path="url(#clip0_41_954)">
<path opacity="0.941" fill-rule="evenodd" clip-rule="evenodd" d="M41.959 25.3064C41.959 25.5252 41.959 25.7439 41.959 25.9627C38.1978 29.2122 34.397 32.4251 30.5566 35.6013C30.0932 35.7455 29.7787 35.5951 29.6133 35.1502C29.5723 33.7559 29.5586 32.3613 29.5723 30.9666C23.4746 30.9803 17.3769 30.9666 11.2793 30.9256C10.9275 30.6162 10.8592 30.2471 11.0742 29.8181C11.1906 29.7394 11.3137 29.671 11.4434 29.6131C17.7871 29.5583 24.1309 29.5583 30.4746 29.6131C30.6844 29.6692 30.8348 29.7923 30.9258 29.9822C30.9531 31.1306 30.9805 32.2791 31.0078 33.4275C34.0828 30.8582 37.1316 28.2605 40.1543 25.6345C37.1437 22.9931 34.0949 20.3955 31.0078 17.8416C30.9805 18.99 30.9531 20.1384 30.9258 21.2869C30.8301 21.3826 30.7344 21.4783 30.6387 21.574C24.541 21.615 18.4434 21.6287 12.3457 21.615C12.3594 23.0098 12.3457 24.4043 12.3047 25.7986C12.1116 26.2576 11.7698 26.4079 11.2793 26.2498C7.46398 23.0763 3.69054 19.8635 -0.0410156 16.6111C-0.0410156 16.3923 -0.0410156 16.1736 -0.0410156 15.9549C3.70803 12.7248 7.48147 9.51196 11.2793 6.31618C11.7698 6.15801 12.1116 6.3084 12.3047 6.76735C12.3457 8.16161 12.3594 9.55617 12.3457 10.9509C18.4434 10.9372 24.541 10.9509 30.6387 10.992C30.9904 11.3013 31.0588 11.6704 30.8438 12.0994C30.7273 12.1781 30.6043 12.2465 30.4746 12.3045C24.1309 12.3592 17.7871 12.3592 11.4434 12.3045C11.2336 12.2483 11.0832 12.1252 10.9922 11.9353C10.9649 10.7869 10.9375 9.63845 10.9102 8.49001C7.86566 11.0982 4.81683 13.6959 1.76367 16.283C4.77427 18.9244 7.8231 21.522 10.9102 24.0759C10.9375 22.9275 10.9649 21.7791 10.9922 20.6306C11.0879 20.5349 11.1836 20.4393 11.2793 20.3435C17.3769 20.3025 23.4746 20.2888 29.5723 20.3025C29.5586 18.9077 29.5723 17.5132 29.6133 16.1189C29.6459 15.8948 29.769 15.7444 29.9824 15.6677C30.2012 15.613 30.4199 15.613 30.6387 15.6677C34.4539 18.8412 38.2274 22.054 41.959 25.3064Z" fill="#D34341"/>
</g>
<defs>
<clipPath id="clip0_41_954">
<rect width="42" height="42" fill="white"/>
</clipPath>
</defs>
</svg>
