<svg width="42" height="42" viewBox="0 0 42 42" fill="none" xmlns="http://www.w3.org/2000/svg">
<g clip-path="url(#clip0_45_987)">
<path d="M28 2.1001C26.0443 2.0987 24.1184 2.57969 22.393 3.50045C20.6676 4.42122 19.1959 5.75333 18.1084 7.37877C17.0209 9.0042 16.351 10.8728 16.1582 12.819C15.9654 14.7652 16.2555 16.7289 17.003 18.5361L2.044 33.4951L1.75 34.1513V40.2501H7.93275L8.6835 40.1171L12.25 36.5506V35.0001H13.7987L17.5 31.3006V29.7501H19.0505L23.7125 25.0881C25.342 25.7186 27.0904 25.9824 28.8334 25.8607C30.5763 25.739 32.2711 25.2348 33.7972 24.384C35.3232 23.5332 36.6431 22.3566 37.663 20.938C38.6829 19.5193 39.3777 17.8933 39.698 16.1757C40.0184 14.4581 39.9564 12.691 39.5165 11.0001C39.0766 9.30917 38.2696 7.73591 37.1528 6.39217C36.0361 5.04843 34.637 3.96722 33.0551 3.2254C31.4731 2.48358 29.7472 2.09938 28 2.1001ZM28 24.1501C26.3713 24.1502 24.7669 23.7557 23.324 23.0004L18.326 28.0001H15.75V30.5761L13.076 33.2501H10.5V35.8261L7.8365 38.4896L7.77875 38.5001H3.5V34.5258L3.50875 34.5066L19.1152 18.8984C18.0419 16.9494 17.6389 14.7017 17.9684 12.5013C18.2978 10.3008 19.3414 8.2697 20.9384 6.72056C22.5355 5.17141 24.5974 4.19015 26.8069 3.92786C29.0163 3.66556 31.2507 4.13676 33.1661 5.26893C35.0814 6.40109 36.5716 8.13144 37.407 10.1936C38.2425 12.2557 38.377 14.5353 37.7898 16.6814C37.2026 18.8274 35.9263 20.721 34.1574 22.0705C32.3884 23.4201 30.2249 24.1508 28 24.1501ZM20.3507 22.8376L6.4435 36.7501H5.25V35.5601L19.1625 21.6441L20.3507 22.8376ZM30.625 7.0001C29.7597 7.0001 28.9138 7.25669 28.1944 7.73742C27.4749 8.21815 26.9142 8.90143 26.583 9.70086C26.2519 10.5003 26.1653 11.38 26.3341 12.2286C26.5029 13.0773 26.9196 13.8568 27.5314 14.4687C28.1433 15.0805 28.9228 15.4972 29.7715 15.666C30.6201 15.8348 31.4998 15.7482 32.2992 15.4171C33.0987 15.0859 33.7819 14.5252 34.2627 13.8057C34.7434 13.0863 35 12.2404 35 11.3751C35 10.2148 34.5391 9.10198 33.7186 8.28151C32.8981 7.46104 31.7853 7.0001 30.625 7.0001ZM30.625 14.0001C30.1058 14.0001 29.5983 13.8461 29.1666 13.5577C28.7349 13.2693 28.3985 12.8593 28.1998 12.3796C28.0011 11.9 27.9492 11.3722 28.0504 10.863C28.1517 10.3538 28.4017 9.88606 28.7688 9.51894C29.136 9.15183 29.6037 8.90182 30.1129 8.80054C30.6221 8.69925 31.1499 8.75124 31.6295 8.94992C32.1092 9.1486 32.5192 9.48505 32.8076 9.91673C33.096 10.3484 33.25 10.8559 33.25 11.3751C33.2491 12.071 32.9722 12.7382 32.4801 13.2302C31.988 13.7223 31.3209 13.9992 30.625 14.0001Z" fill="#D34341"/>
</g>
<defs>
<clipPath id="clip0_45_987">
<rect width="42" height="42" fill="white"/>
</clipPath>
</defs>
</svg>
