<svg width="42" height="42" viewBox="0 0 42 42" fill="none" xmlns="http://www.w3.org/2000/svg">
<g clip-path="url(#clip0_45_977)">
<path opacity="0.25" d="M24.5 32.9873L5.22546 10.8288L10.8342 2.12256L30.3187 8.37006L24.5 12.2498V32.9873Z" fill="#3F3D56"/>
<path d="M40.25 40.2498V1.74979L24.5 12.2498V40.2498H17.5V22.7498H15.75V24.4998H1.75V40.2498H0V41.9998H42V40.2498H40.25ZM26.25 13.186L38.5 5.01879V40.2498H26.25V13.186ZM3.5 40.2498V26.2498H15.75V40.2498H3.5ZM0.798 1.21779C0.819105 1.07827 0.875973 0.946598 0.963068 0.835582C1.05016 0.724567 1.16452 0.637993 1.295 0.584287C2.86888 0.182435 4.50679 0.0964708 6.11408 0.331363C7.72138 0.566254 9.26619 1.11734 10.6593 1.95279C10.7345 2.00004 10.7957 2.06129 10.8693 2.11029L6.769 8.44529C6.7165 8.41729 6.664 8.39629 6.615 8.36304C6.22016 8.15566 5.87288 7.86828 5.59529 7.51921C5.31771 7.17014 5.11593 6.76705 5.00281 6.33565C4.88969 5.90425 4.86772 5.45401 4.9383 5.01365C5.00888 4.57329 5.17047 4.15247 5.41275 3.77804C5.87652 3.08741 6.52295 2.53913 7.28 2.19429C5.64988 1.71171 3.91579 1.70503 2.282 2.17504C2.22812 3.61115 2.56128 5.03535 3.2466 6.29855C3.93192 7.56175 4.94421 8.6175 6.1775 9.35529L5.1765 10.9023C3.51449 9.96044 2.19475 8.51484 1.40776 6.77415C0.620765 5.03346 0.40724 3.08772 0.798 1.21779ZM5.25 27.9998H8.75V31.4998H5.25V27.9998ZM10.5 27.9998H14V31.4998H10.5V27.9998ZM5.25 33.2498H8.75V36.7498H5.25V33.2498ZM10.5 33.2498H14V36.7498H10.5V33.2498ZM33.25 17.4998H36.75V20.9998H33.25V17.4998ZM33.25 12.2498H36.75V15.7498H33.25V12.2498ZM28 22.7498H31.5V26.2498H28V22.7498ZM33.25 22.7498H36.75V26.2498H33.25V22.7498ZM28 27.9998H31.5V31.4998H28V27.9998ZM33.25 27.9998H36.75V31.4998H33.25V27.9998ZM28 33.2498H31.5V36.7498H28V33.2498ZM33.25 33.2498H36.75V36.7498H33.25V33.2498ZM28 17.4998H31.5V20.9998H28V17.4998ZM5.25 12.2498H7V13.9998H5.25V12.2498ZM15.75 3.49979H14V1.74979H15.75V3.49979ZM21 5.24979H19.25V3.49979H21V5.24979ZM26.25 6.99979H24.5V5.24979H26.25V6.99979ZM8.75 17.4998V15.7498H10.5V17.4998H8.75ZM14 20.9998H12.25V19.2498H14V20.9998Z" fill="#3F3D56"/>
</g>
<defs>
<clipPath id="clip0_45_977">
<rect width="42" height="42" fill="white"/>
</clipPath>
</defs>
</svg>
