<svg width="42" height="42" viewBox="0 0 42 42" fill="none" xmlns="http://www.w3.org/2000/svg">
<g clip-path="url(#clip0_45_981)">
<path d="M35 22.2443L36.75 20.4943V34.5065C36.75 35.1012 36.5139 35.6716 36.0935 36.0923C35.6732 36.513 35.103 36.7495 34.5082 36.75H20.496L22.246 35H34.5082C34.6387 35 34.7638 34.9482 34.856 34.856C34.9482 34.7638 35 34.6387 35 34.5082V22.2443ZM3.5 5.74175V34.5065C3.5 35.1012 3.73613 35.6716 4.15649 36.0923C4.57685 36.513 5.14704 36.7495 5.74175 36.75H8.575L9.324 35H5.74175C5.61133 35 5.48625 34.9482 5.39403 34.856C5.30181 34.7638 5.25 34.6387 5.25 34.5082V5.74C5.25046 5.60988 5.30248 5.48525 5.39465 5.39341C5.48682 5.30157 5.61163 5.25 5.74175 5.25H34.51C34.6404 5.25 34.7655 5.30181 34.8577 5.39403C34.9499 5.48625 35.0017 5.61133 35.0017 5.74175V7.70175C35.5472 7.44512 36.1518 7.34053 36.7517 7.399V5.74175C36.7518 5.44721 36.6937 5.15556 36.5809 4.88347C36.4682 4.61137 36.3029 4.36416 36.0945 4.15597C35.8862 3.94779 35.6389 3.7827 35.3667 3.67014C35.0945 3.55759 34.8028 3.49977 34.5082 3.5H5.74C5.14575 3.50046 4.57601 3.73685 4.15597 4.15721C3.73594 4.57757 3.5 5.1475 3.5 5.74175ZM35.2625 9.60925C35.4234 9.45014 35.6147 9.325 35.8249 9.24126C36.0352 9.15752 36.2601 9.11689 36.4864 9.12179C36.7126 9.12668 36.9356 9.17701 37.142 9.26976C37.3484 9.36252 37.5341 9.49582 37.688 9.66175L40.1607 12.1345C40.3264 12.2884 40.4595 12.4739 40.5521 12.6802C40.6447 12.8865 40.6949 13.1092 40.6998 13.3353C40.7047 13.5613 40.6642 13.786 40.5806 13.9961C40.497 14.2062 40.3721 14.3974 40.2132 14.5583L17.1955 37.5742L10.0275 40.6472C9.90819 40.6988 9.77617 40.7133 9.64851 40.689C9.52085 40.6647 9.40342 40.6026 9.31143 40.5108C9.21944 40.419 9.15712 40.3017 9.13253 40.1741C9.10794 40.0465 9.12221 39.9144 9.1735 39.795L12.2465 32.6252L35.2625 9.60925ZM15.7885 36.274L13.5485 34.034L11.8685 37.954L15.7885 36.274ZM35.1628 17.1325L32.69 14.658L14.6685 32.6795L17.1413 35.154L35.1628 17.1325ZM35.9713 11.375L33.9255 13.4225L36.4 15.8953L38.416 13.881C38.5516 13.7451 38.6286 13.5615 38.6305 13.3695C38.6325 13.1775 38.5593 12.9924 38.4265 12.8538L37.0195 11.3873C36.9519 11.3166 36.8708 11.2602 36.7811 11.2212C36.6914 11.1823 36.5949 11.1616 36.4971 11.1605C36.3993 11.1594 36.3023 11.1777 36.2117 11.2146C36.1211 11.2514 36.0405 11.3059 35.9713 11.375Z" fill="#8E2C9E"/>
</g>
<defs>
<clipPath id="clip0_45_981">
<rect width="42" height="42" fill="white"/>
</clipPath>
</defs>
</svg>
