<svg width="42" height="42" viewBox="0 0 42 42" fill="none" xmlns="http://www.w3.org/2000/svg">
<g clip-path="url(#clip0_45_974)">
<path d="M24.5 20.188L26.25 21.938V35H19.25V17.4055L20.9387 16.625L21 16.688V33.25H24.5V20.188ZM21 3.5H24.5V7.812L26.25 9.562V1.75H19.25V7.76825L21 6.95975V3.5ZM8.75 21H15.75V35H8.75V21ZM10.5 33.25H14V22.75H10.5V33.25ZM31.5 10.5H35V18.312L35.938 19.25H36.75V8.75H29.75V13.062L31.5 14.812V10.5ZM35 33.25H31.5V27.188L29.75 25.438V35H36.75V28H35V33.25ZM3.5 1.75H1.75V40.25H40.25V38.5H3.5V1.75ZM34.4872 22.75L22.0623 10.325L10.3075 15.75H8.75V17.5H10.5L21.6877 12.425L33.7627 24.5H36.75V22.75H34.4872Z" fill="#FE5D03"/>
</g>
<defs>
<clipPath id="clip0_45_974">
<rect width="42" height="42" fill="white"/>
</clipPath>
</defs>
</svg>
