<svg width="42" height="41" viewBox="0 0 42 41" fill="none" xmlns="http://www.w3.org/2000/svg">
<path opacity="0.948" fill-rule="evenodd" clip-rule="evenodd" d="M41.959 9.39235C41.959 10.2127 41.959 11.033 41.959 11.8533C41.2962 15.7593 39.1086 18.4253 35.3965 19.8513C34.2223 20.228 33.0192 20.3785 31.7871 20.3025C31.8008 25.6893 31.7871 31.076 31.7461 36.4627C31.2302 38.9746 29.7126 40.4649 27.1934 40.9334C19.6738 40.9881 12.1543 40.9881 4.63477 40.9334C2.1053 40.4955 0.546702 39.0325 -0.0410156 36.5447C-0.0410156 35.1229 -0.0410156 33.7009 -0.0410156 32.2791C0.0700616 32.0989 0.234124 31.9759 0.451172 31.9099C2.11892 31.8689 3.78688 31.8552 5.45508 31.8689C5.46285 23.8291 5.5312 15.7901 5.66016 7.75173C5.69832 7.63436 5.76668 7.53865 5.86523 7.46462C11.6283 7.36943 17.3978 7.30107 23.1738 7.25954C25.1456 2.82742 28.5636 0.73562 33.4277 0.98415C37.2057 1.55295 39.8444 3.59006 41.3438 7.09548C41.6282 7.85144 41.8333 8.61708 41.959 9.39235ZM31.2129 2.4197C35.3953 2.17846 38.3348 3.9558 40.0312 7.75173C41.1591 11.2931 40.3798 14.3419 37.6934 16.8982C34.2527 19.4827 30.7528 19.5647 27.1934 17.1443C24.1853 14.4776 23.3513 11.2373 24.6914 7.4236C26.0025 4.62125 28.1763 2.95329 31.2129 2.4197ZM7.01367 8.7361C12.2637 8.7361 17.5137 8.7361 22.7637 8.7361C22.4001 10.7079 22.6188 12.6083 23.4199 14.4373C21.1778 14.4646 18.9355 14.492 16.6934 14.5193C16.1465 14.9568 16.1465 15.3943 16.6934 15.8318C19.1816 15.8591 21.6699 15.8865 24.1582 15.9138C25.6466 18.1797 27.7247 19.5879 30.3926 20.1384C30.4063 25.3885 30.3926 30.6385 30.3516 35.8885C29.9679 38.104 28.6554 39.3344 26.4141 39.5799C24.4182 39.4157 23.1331 38.3766 22.5586 36.4627C22.4565 35.0713 22.4018 33.6767 22.3945 32.2791C22.3564 32.1617 22.288 32.066 22.1895 31.992C17.081 31.8698 11.9677 31.8288 6.84961 31.8689C6.9309 24.1583 6.98558 16.4474 7.01367 8.7361ZM12.5918 14.4783C13.3095 14.5745 13.542 14.9574 13.2891 15.6267C12.8316 16.0567 12.394 16.0293 11.9766 15.5447C11.8226 14.9754 12.0277 14.62 12.5918 14.4783ZM12.3457 20.4666C13.3313 20.4037 13.6048 20.8003 13.166 21.656C12.5504 21.9793 12.1128 21.8152 11.8535 21.1638C11.9077 20.8504 12.0718 20.618 12.3457 20.4666ZM12.3457 26.3728C12.7016 26.3192 13.0161 26.4012 13.2891 26.6189C13.5398 27.3521 13.28 27.7213 12.5098 27.7263C11.7296 27.3483 11.6749 26.8971 12.3457 26.3728ZM1.35352 33.3455C7.91602 33.3455 14.4785 33.3455 21.041 33.3455C21.0273 34.3849 21.041 35.424 21.082 36.4627C21.271 37.7028 21.8316 38.7282 22.7637 39.5388C16.9121 39.5936 11.0605 39.5936 5.20898 39.5388C3.10274 39.292 1.83126 38.13 1.39453 36.0525C1.35353 35.1506 1.33986 34.2482 1.35352 33.3455Z" fill="#FAFF00"/>
</svg>
