<svg width="42" height="34" viewBox="0 0 42 34" fill="none" xmlns="http://www.w3.org/2000/svg">
<path d="M20.16 21.376V29.1585C20.16 29.8532 19.5959 30.4163 18.9 30.4163H2.94C2.24413 30.4163 1.68 29.8532 1.68 29.1585V4.84116C1.68 4.14644 2.24413 3.58334 2.94 3.58334H18.9C19.5959 3.58334 20.16 4.1464 20.16 4.84116V14.7359C20.16 15.199 20.5361 15.5745 21 15.5745C21.4639 15.5745 21.84 15.199 21.84 14.7359V4.84116C21.84 3.22014 20.5236 1.90625 18.9 1.90625H2.94C1.31636 1.90625 0 3.22014 0 4.84116V29.1585C0 30.7795 1.31636 32.0934 2.94 32.0934H18.9C20.5236 32.0934 21.84 30.7795 21.84 29.1585V21.376C21.84 20.9128 21.4639 20.5374 21 20.5374C20.5361 20.5374 20.16 20.9128 20.16 21.376Z" fill="#009100"/>
<path d="M16.3801 9.45295C16.6121 9.45295 16.8001 9.26531 16.8001 9.03369V7.3566C16.8001 7.12499 16.6121 6.93734 16.3801 6.93734H5.46011C5.22808 6.93734 5.04011 7.12499 5.04011 7.3566V9.03369C5.04011 9.26531 5.22808 9.45295 5.46011 9.45295H16.3801ZM16.3801 11.13H5.46011C4.30027 11.13 3.36011 10.1915 3.36011 9.03369V7.3566C3.36011 6.19877 4.30027 5.26025 5.46011 5.26025H16.3801C17.5399 5.26025 18.4801 6.19877 18.4801 7.3566V9.03369C18.4801 10.1915 17.5399 11.13 16.3801 11.13ZM7.49157 15.1668C7.71584 16.3483 6.69734 17.3651 5.5138 17.1412C4.85648 17.0166 4.31848 16.4795 4.19416 15.8234C3.96948 14.6419 4.98798 13.6252 6.17152 13.8491C6.82925 13.9736 7.36684 14.5107 7.49157 15.1668ZM12.5316 15.1668C12.7558 16.3483 11.7373 17.3651 10.5538 17.1412C9.89648 17.0166 9.35848 16.4795 9.23416 15.8234C9.00948 14.6419 10.028 13.6252 11.2115 13.8491C11.8693 13.9736 12.4068 14.5107 12.5316 15.1668ZM7.49157 20.24C7.71584 21.4215 6.69734 22.4383 5.5138 22.2143C4.85648 22.0898 4.31848 21.5527 4.19416 20.8966C3.96948 19.7151 4.98798 18.6984 6.17152 18.9223C6.82925 19.0468 7.36684 19.5839 7.49157 20.24ZM12.5316 20.24C12.7558 21.4215 11.7373 22.4383 10.5538 22.2143C9.89648 22.0898 9.35848 21.5527 9.23416 20.8966C9.00948 19.7151 10.028 18.6984 11.2115 18.9223C11.8693 19.0468 12.4068 19.5839 12.5316 20.24ZM17.5716 20.24C17.7958 21.4215 16.7773 22.4383 15.5938 22.2143C14.9365 22.0898 14.3985 21.5527 14.2742 20.8966C14.0495 19.7151 15.068 18.6984 16.2515 18.9223C16.9092 19.0468 17.4468 19.5839 17.5716 20.24ZM7.49157 25.2713C7.71584 26.4528 6.69734 27.4695 5.5138 27.2456C4.85648 27.1211 4.31848 26.584 4.19416 25.9279C3.96948 24.7464 4.98798 23.7296 6.17152 23.9535C6.82925 24.0781 7.36684 24.6152 7.49157 25.2713ZM12.5316 25.2713C12.7558 26.4528 11.7373 27.4695 10.5538 27.2456C9.89648 27.1211 9.35848 26.584 9.23416 25.9279C9.00948 24.7464 10.028 23.7296 11.2115 23.9535C11.8693 24.0781 12.4068 24.6152 12.5316 25.2713ZM17.5716 25.2713C17.7958 26.4528 16.7773 27.4695 15.5938 27.2456C14.9365 27.1211 14.3985 26.584 14.2742 25.9279C14.0495 24.7464 15.068 23.7296 16.2515 23.9535C16.9092 24.0781 17.4468 24.6152 17.5716 25.2713ZM24.9326 23.7549L16.743 15.5796C16.3436 15.1809 16.3436 14.5341 16.743 14.1354L16.9402 13.939C17.3404 13.5393 17.988 13.5393 18.3874 13.9381L26.5772 22.1132C26.9052 22.4407 27.4371 22.4407 27.7651 22.1132C28.0931 21.7857 28.0931 21.2548 27.7651 20.9273L19.5755 12.7524C18.5201 11.6983 16.8082 11.6983 15.7527 12.7526L15.5557 12.9488C14.4996 14.0031 14.4996 15.7118 15.5551 16.7654L23.7447 24.9408C24.0728 25.2683 24.6046 25.2683 24.9326 24.9408C25.2607 24.6133 25.2607 24.0824 24.9326 23.7549L24.9326 23.7549Z" fill="#009100"/>
<path d="M27.8226 20.9851L23.5349 16.7047C23.1351 16.3057 23.1351 15.6594 23.5347 15.2607L23.7329 15.0624C24.1317 14.6644 24.7796 14.6644 25.179 15.063L29.4672 19.3434C29.7953 19.6709 30.3271 19.6708 30.6551 19.3433C30.9831 19.0159 30.9831 18.4849 30.6551 18.1575L26.3669 13.8771C25.3115 12.8235 23.5998 12.8235 22.5443 13.8772L22.3463 14.0753C21.291 15.1281 21.291 16.8365 22.3469 17.8906L26.6347 22.1709C26.9628 22.4984 27.4946 22.4984 27.8226 22.1709C28.1507 21.8435 28.1507 21.3125 27.8226 20.9851Z" fill="#009100"/>
<path d="M31.4452 18.947L27.1574 14.6666C26.7577 14.2676 26.7577 13.6213 27.1573 13.2226L27.3555 13.0243C27.7542 12.6263 28.4021 12.6263 28.8015 13.025L33.0898 17.3053C33.4178 17.6328 33.9497 17.6327 34.2777 17.3053C34.6057 16.9778 34.6057 16.4468 34.2777 16.1194L29.9895 11.839C28.934 10.7854 27.2224 10.7854 26.1669 11.8391L25.9689 12.0372C24.9136 13.09 24.9136 14.7984 25.9695 15.8525L30.2573 20.1328C30.5853 20.4603 31.1172 20.4603 31.4452 20.1328C31.7732 19.8054 31.7732 19.2745 31.4452 18.947Z" fill="#009100"/>
<path d="M35.0592 16.926L30.7714 12.6457C30.3716 12.2466 30.3716 11.6003 30.7712 11.2016L30.9694 11.0033C31.3682 10.6053 32.0161 10.6053 32.4155 11.004L36.7037 15.2843C37.0318 15.6118 37.5636 15.6117 37.8916 15.2843C38.2196 14.9568 38.2197 14.4259 37.8916 14.0984L33.6034 9.81803C32.548 8.76442 30.8363 8.76442 29.7809 9.81808L29.5828 10.0162C28.5275 11.0691 28.5275 12.7774 29.5834 13.8315L33.8712 18.1118C34.1993 18.4393 34.7311 18.4393 35.0592 18.1118C35.3872 17.7844 35.3872 17.2534 35.0592 16.926V16.926ZM28.1225 26.9394L24.3081 23.1315L23.1201 24.3174L26.9346 28.1252L28.1225 26.9394Z" fill="#009100"/>
<path d="M33.572 12.1585L38.4759 17.054L39.6639 15.8681L34.76 10.9727L33.572 12.1585Z" fill="#009100"/>
<path d="M38.1922 16.7638C39.5358 18.0977 40.3041 19.9039 40.3041 21.8336C40.3041 25.7824 37.0976 28.9834 33.1419 28.9834C31.2157 28.9834 29.4126 28.2222 28.0776 26.8895L26.8896 28.0754C28.5366 29.7194 30.7656 30.6605 33.1419 30.6605C38.0254 30.6605 41.9841 26.7087 41.9841 21.8336C41.9841 19.453 41.0344 17.2203 39.3769 15.5747L38.1922 16.7638V16.7638Z" fill="#009100"/>
</svg>
