<svg width="37" height="37" viewBox="0 0 37 37" fill="none" xmlns="http://www.w3.org/2000/svg">
<g clip-path="url(#clip0_91_5)">
<path d="M30.8648 0.885C30.6189 0.638788 30.2853 0.500306 29.9373 0.5H20.7498C20.4018 0.500306 20.0682 0.638788 19.8223 0.885L1.44732 19.26C1.20153 19.5061 1.06348 19.8397 1.06348 20.1875C1.06348 20.5353 1.20153 20.8689 1.44732 21.115L15.8848 35.5525C16.1309 35.7983 16.4645 35.9363 16.8123 35.9363C17.1601 35.9363 17.4937 35.7983 17.7398 35.5525L36.1148 17.1775C36.361 16.9316 36.4995 16.598 36.4998 16.25V7.0625C36.4995 6.71452 36.361 6.38091 36.1148 6.135L30.8648 0.885ZM34.7498 16.068L16.8123 34.0055L2.99432 20.1875L20.9318 2.25H29.7571L34.7498 7.2445V16.068ZM24.2498 8.375C24.2498 9.24029 24.5064 10.0862 24.9871 10.8056C25.4679 11.5251 26.1512 12.0858 26.9506 12.417C27.75 12.7481 28.6297 12.8347 29.4783 12.6659C30.327 12.4971 31.1066 12.0804 31.7184 11.4686C32.3303 10.8567 32.7469 10.0772 32.9158 9.22852C33.0846 8.37985 32.9979 7.50019 32.6668 6.70076C32.3357 5.90133 31.7749 5.21805 31.0554 4.73732C30.336 4.25659 29.4901 4 28.6248 4C27.4645 4 26.3517 4.46094 25.5312 5.28141C24.7108 6.10188 24.2498 7.21468 24.2498 8.375ZM31.2498 8.375C31.2498 8.89418 31.0959 9.40169 30.8074 9.83337C30.519 10.2651 30.109 10.6015 29.6294 10.8002C29.1497 10.9989 28.6219 11.0508 28.1127 10.9496C27.6035 10.8483 27.1358 10.5983 26.7687 10.2312C26.4016 9.86404 26.1515 9.39631 26.0503 8.88711C25.949 8.37791 26.001 7.85011 26.1996 7.37046C26.3983 6.8908 26.7348 6.48083 27.1665 6.19239C27.5981 5.90395 28.1056 5.75 28.6248 5.75C29.3207 5.75093 29.9879 6.02778 30.48 6.51987C30.972 7.01195 31.2489 7.67909 31.2498 8.375ZM20.0341 7.626C19.7965 7.39089 19.4758 7.25901 19.1416 7.25901C18.8073 7.25901 18.4866 7.39089 18.2491 7.626L6.87407 18.9975C6.75634 19.1146 6.66292 19.2538 6.59917 19.4071C6.53542 19.5604 6.5026 19.7248 6.5026 19.8909C6.5026 20.0569 6.53542 20.2213 6.59917 20.3746C6.66292 20.528 6.75634 20.6672 6.87407 20.7842L16.2156 30.1275C16.3326 30.245 16.4717 30.3382 16.6249 30.4018C16.778 30.4654 16.9422 30.4981 17.1081 30.4981C17.2739 30.4981 17.4381 30.4654 17.5913 30.4018C17.7444 30.3382 17.8835 30.245 18.0006 30.1275L29.3756 18.7542C29.4933 18.6372 29.5867 18.498 29.6505 18.3446C29.7142 18.1913 29.747 18.0269 29.747 17.8609C29.747 17.6948 29.7142 17.5304 29.6505 17.3771C29.5867 17.2238 29.4933 17.0846 29.3756 16.9675L20.0341 7.626ZM17.1098 28.5455L8.45607 19.89L19.1416 9.20625L27.7936 17.8582L17.1098 28.5455Z" fill="#D34341"/>
</g>
<defs>
<clipPath id="clip0_91_5">
<rect width="37" height="37" fill="white"/>
</clipPath>
</defs>
</svg>
