<svg width="42" height="42" viewBox="0 0 42 42" fill="none" xmlns="http://www.w3.org/2000/svg">
<g clip-path="url(#clip0_91_2)">
<path d="M5.25 1.75V40.25H36.75V11.7408L26.7575 1.75H5.25ZM35 38.5H7V3.5H24.5V14H35V38.5ZM35 12.25H26.25V3.5H26.6L35 11.9V12.25ZM10.5 35H31.5V17.5H10.5V35ZM17.5 33.25V29.75H22.75V33.25H17.5ZM17.5 28V24.5H22.75V28H17.5ZM29.75 33.25H24.5V29.75H29.75V33.25ZM29.75 28H24.5V24.5H29.75V28ZM29.75 19.25V22.75H24.5V19.25H29.75ZM22.75 19.25V22.75H17.5V19.25H22.75ZM12.25 19.25H15.75V22.75H12.25V19.25ZM12.25 24.5H15.75V28H12.25V24.5ZM12.25 29.75H15.75V33.25H12.25V29.75ZM22.75 8.75H10.5V7H22.75V8.75ZM22.75 12.25H10.5V10.5H22.75V12.25Z" fill="#FAFF00"/>
</g>
<defs>
<clipPath id="clip0_91_2">
<rect width="42" height="42" fill="white"/>
</clipPath>
</defs>
</svg>
