<svg width="30" height="34" viewBox="0 0 30 34" fill="none" xmlns="http://www.w3.org/2000/svg">
<path d="M8.60019 0.200195C6.2806 0.200195 4.4002 2.0806 4.4002 4.4002V19.1002H6.5002V4.4002C6.5002 3.24041 7.44041 2.3002 8.60019 2.3002H17.0002V9.6502C17.0002 11.3899 18.4106 12.8002 20.1502 12.8002H27.5002V29.6002C27.5002 30.76 26.56 31.7002 25.4002 31.7002H8.60019C7.44041 31.7002 6.5002 30.76 6.5002 29.6002V25.4002H4.4002V29.6002C4.4002 31.9199 6.2806 33.8002 8.60019 33.8002H25.4002C27.7199 33.8002 29.6002 31.9199 29.6002 29.6002V11.57C29.6002 10.7346 29.2684 9.9334 28.6777 9.34265L20.4576 1.12281C19.8669 0.53208 19.0658 0.200195 18.2304 0.200195H8.60019ZM27.0653 10.7002H20.1502C19.5704 10.7002 19.1002 10.2301 19.1002 9.6502V2.73513L27.0653 10.7002ZM9.6502 17.0002C9.0703 17.0002 8.60019 17.4704 8.60019 18.0502C8.60019 18.63 9.0703 19.1002 9.6502 19.1002H24.3502C24.93 19.1002 25.4002 18.63 25.4002 18.0502C25.4002 17.4704 24.93 17.0002 24.3502 17.0002H9.6502ZM1.2502 21.2002C0.670301 21.2002 0.200195 21.6704 0.200195 22.2502C0.200195 22.83 0.670301 23.3002 1.2502 23.3002H15.9502C16.5301 23.3002 17.0002 22.83 17.0002 22.2502C17.0002 21.6704 16.5301 21.2002 15.9502 21.2002H1.2502ZM9.6502 25.4002C9.0703 25.4002 8.60019 25.8704 8.60019 26.4502C8.60019 27.03 9.0703 27.5002 9.6502 27.5002H24.3502C24.93 27.5002 25.4002 27.03 25.4002 26.4502C25.4002 25.8704 24.93 25.4002 24.3502 25.4002H9.6502Z" fill="#5086C1"/>
</svg>
